G04 #@! TF.GenerationSoftware,KiCad,Pcbnew,(5.1.2)-1*
G04 #@! TF.CreationDate,2025-09-14T13:11:52+09:00*
G04 #@! TF.ProjectId,ots,6f74732e-6b69-4636-9164-5f7063625858,v1.1*
G04 #@! TF.SameCoordinates,Original*
G04 #@! TF.FileFunction,Soldermask,Bot*
G04 #@! TF.FilePolarity,Negative*
%FSLAX46Y46*%
G04 Gerber Fmt 4.6, Leading zero omitted, Abs format (unit mm)*
G04 Created by KiCad (PCBNEW (5.1.2)-1) date 2025-09-14 13:11:52*
%MOMM*%
%LPD*%
G04 APERTURE LIST*
%ADD10C,0.100000*%
G04 APERTURE END LIST*
D10*
G36*
X150375256Y-99391298D02*
G01*
X150481579Y-99412447D01*
X150782042Y-99536903D01*
X151052451Y-99717585D01*
X151282415Y-99947549D01*
X151463097Y-100217958D01*
X151587553Y-100518421D01*
X151651000Y-100837391D01*
X151651000Y-101162609D01*
X151587553Y-101481579D01*
X151463097Y-101782042D01*
X151282415Y-102052451D01*
X151052451Y-102282415D01*
X150782042Y-102463097D01*
X150481579Y-102587553D01*
X150375256Y-102608702D01*
X150162611Y-102651000D01*
X149837389Y-102651000D01*
X149624744Y-102608702D01*
X149518421Y-102587553D01*
X149217958Y-102463097D01*
X148947549Y-102282415D01*
X148717585Y-102052451D01*
X148536903Y-101782042D01*
X148412447Y-101481579D01*
X148349000Y-101162609D01*
X148349000Y-100837391D01*
X148412447Y-100518421D01*
X148536903Y-100217958D01*
X148717585Y-99947549D01*
X148947549Y-99717585D01*
X149217958Y-99536903D01*
X149518421Y-99412447D01*
X149624744Y-99391298D01*
X149837389Y-99349000D01*
X150162611Y-99349000D01*
X150375256Y-99391298D01*
X150375256Y-99391298D01*
G37*
G36*
X154217747Y-93690921D02*
G01*
X154297376Y-93698764D01*
X154450627Y-93745252D01*
X154450630Y-93745253D01*
X154591863Y-93820744D01*
X154715659Y-93922341D01*
X154817256Y-94046137D01*
X154892747Y-94187370D01*
X154892748Y-94187373D01*
X154939236Y-94340624D01*
X154954933Y-94500000D01*
X154939236Y-94659376D01*
X154892748Y-94812627D01*
X154892747Y-94812630D01*
X154817256Y-94953863D01*
X154715659Y-95077659D01*
X154591863Y-95179256D01*
X154450630Y-95254747D01*
X154450627Y-95254748D01*
X154297376Y-95301236D01*
X154217747Y-95309079D01*
X154177934Y-95313000D01*
X153822066Y-95313000D01*
X153782253Y-95309079D01*
X153702624Y-95301236D01*
X153549373Y-95254748D01*
X153549370Y-95254747D01*
X153408137Y-95179256D01*
X153284341Y-95077659D01*
X153182744Y-94953863D01*
X153107253Y-94812630D01*
X153107252Y-94812627D01*
X153060764Y-94659376D01*
X153045067Y-94500000D01*
X153060764Y-94340624D01*
X153107252Y-94187373D01*
X153107253Y-94187370D01*
X153182744Y-94046137D01*
X153284341Y-93922341D01*
X153408137Y-93820744D01*
X153549370Y-93745253D01*
X153549373Y-93745252D01*
X153702624Y-93698764D01*
X153782253Y-93690921D01*
X153822066Y-93687000D01*
X154177934Y-93687000D01*
X154217747Y-93690921D01*
X154217747Y-93690921D01*
G37*
G36*
X154217747Y-91690921D02*
G01*
X154297376Y-91698764D01*
X154450627Y-91745252D01*
X154450630Y-91745253D01*
X154591863Y-91820744D01*
X154715659Y-91922341D01*
X154817256Y-92046137D01*
X154892747Y-92187370D01*
X154892748Y-92187373D01*
X154939236Y-92340624D01*
X154954933Y-92500000D01*
X154939236Y-92659376D01*
X154892748Y-92812627D01*
X154892747Y-92812630D01*
X154817256Y-92953863D01*
X154715659Y-93077659D01*
X154591863Y-93179256D01*
X154450630Y-93254747D01*
X154450627Y-93254748D01*
X154297376Y-93301236D01*
X154217747Y-93309079D01*
X154177934Y-93313000D01*
X153822066Y-93313000D01*
X153782253Y-93309079D01*
X153702624Y-93301236D01*
X153549373Y-93254748D01*
X153549370Y-93254747D01*
X153408137Y-93179256D01*
X153284341Y-93077659D01*
X153182744Y-92953863D01*
X153107253Y-92812630D01*
X153107252Y-92812627D01*
X153060764Y-92659376D01*
X153045067Y-92500000D01*
X153060764Y-92340624D01*
X153107252Y-92187373D01*
X153107253Y-92187370D01*
X153182744Y-92046137D01*
X153284341Y-91922341D01*
X153408137Y-91820744D01*
X153549370Y-91745253D01*
X153549373Y-91745252D01*
X153702624Y-91698764D01*
X153782253Y-91690921D01*
X153822066Y-91687000D01*
X154177934Y-91687000D01*
X154217747Y-91690921D01*
X154217747Y-91690921D01*
G37*
G36*
X154217747Y-89690921D02*
G01*
X154297376Y-89698764D01*
X154450627Y-89745252D01*
X154450630Y-89745253D01*
X154591863Y-89820744D01*
X154715659Y-89922341D01*
X154817256Y-90046137D01*
X154892747Y-90187370D01*
X154892748Y-90187373D01*
X154939236Y-90340624D01*
X154954933Y-90500000D01*
X154939236Y-90659376D01*
X154892748Y-90812627D01*
X154892747Y-90812630D01*
X154817256Y-90953863D01*
X154715659Y-91077659D01*
X154591863Y-91179256D01*
X154450630Y-91254747D01*
X154450627Y-91254748D01*
X154297376Y-91301236D01*
X154217747Y-91309079D01*
X154177934Y-91313000D01*
X153822066Y-91313000D01*
X153782253Y-91309079D01*
X153702624Y-91301236D01*
X153549373Y-91254748D01*
X153549370Y-91254747D01*
X153408137Y-91179256D01*
X153284341Y-91077659D01*
X153182744Y-90953863D01*
X153107253Y-90812630D01*
X153107252Y-90812627D01*
X153060764Y-90659376D01*
X153045067Y-90500000D01*
X153060764Y-90340624D01*
X153107252Y-90187373D01*
X153107253Y-90187370D01*
X153182744Y-90046137D01*
X153284341Y-89922341D01*
X153408137Y-89820744D01*
X153549370Y-89745253D01*
X153549373Y-89745252D01*
X153702624Y-89698764D01*
X153782253Y-89690921D01*
X153822066Y-89687000D01*
X154177934Y-89687000D01*
X154217747Y-89690921D01*
X154217747Y-89690921D01*
G37*
G36*
X154217747Y-87690921D02*
G01*
X154297376Y-87698764D01*
X154450627Y-87745252D01*
X154450630Y-87745253D01*
X154591863Y-87820744D01*
X154715659Y-87922341D01*
X154817256Y-88046137D01*
X154892747Y-88187370D01*
X154892748Y-88187373D01*
X154939236Y-88340624D01*
X154954933Y-88500000D01*
X154939236Y-88659376D01*
X154892748Y-88812627D01*
X154892747Y-88812630D01*
X154817256Y-88953863D01*
X154715659Y-89077659D01*
X154591863Y-89179256D01*
X154450630Y-89254747D01*
X154450627Y-89254748D01*
X154297376Y-89301236D01*
X154217747Y-89309079D01*
X154177934Y-89313000D01*
X153822066Y-89313000D01*
X153782253Y-89309079D01*
X153702624Y-89301236D01*
X153549373Y-89254748D01*
X153549370Y-89254747D01*
X153408137Y-89179256D01*
X153284341Y-89077659D01*
X153182744Y-88953863D01*
X153107253Y-88812630D01*
X153107252Y-88812627D01*
X153060764Y-88659376D01*
X153045067Y-88500000D01*
X153060764Y-88340624D01*
X153107252Y-88187373D01*
X153107253Y-88187370D01*
X153182744Y-88046137D01*
X153284341Y-87922341D01*
X153408137Y-87820744D01*
X153549370Y-87745253D01*
X153549373Y-87745252D01*
X153702624Y-87698764D01*
X153782253Y-87690921D01*
X153822066Y-87687000D01*
X154177934Y-87687000D01*
X154217747Y-87690921D01*
X154217747Y-87690921D01*
G37*
G36*
X154160721Y-84970174D02*
G01*
X154260995Y-85011709D01*
X154260996Y-85011710D01*
X154351242Y-85072010D01*
X154427990Y-85148758D01*
X154427991Y-85148760D01*
X154488291Y-85239005D01*
X154529826Y-85339279D01*
X154551000Y-85445730D01*
X154551000Y-85554270D01*
X154529826Y-85660721D01*
X154488291Y-85760995D01*
X154488290Y-85760996D01*
X154427990Y-85851242D01*
X154351242Y-85927990D01*
X154305812Y-85958345D01*
X154260995Y-85988291D01*
X154160721Y-86029826D01*
X154054270Y-86051000D01*
X153945730Y-86051000D01*
X153839279Y-86029826D01*
X153739005Y-85988291D01*
X153694188Y-85958345D01*
X153648758Y-85927990D01*
X153572010Y-85851242D01*
X153511710Y-85760996D01*
X153511709Y-85760995D01*
X153470174Y-85660721D01*
X153449000Y-85554270D01*
X153449000Y-85445730D01*
X153470174Y-85339279D01*
X153511709Y-85239005D01*
X153572009Y-85148760D01*
X153572010Y-85148758D01*
X153648758Y-85072010D01*
X153739004Y-85011710D01*
X153739005Y-85011709D01*
X153839279Y-84970174D01*
X153945730Y-84949000D01*
X154054270Y-84949000D01*
X154160721Y-84970174D01*
X154160721Y-84970174D01*
G37*
G36*
X150375256Y-80391298D02*
G01*
X150481579Y-80412447D01*
X150782042Y-80536903D01*
X151052451Y-80717585D01*
X151282415Y-80947549D01*
X151463097Y-81217958D01*
X151587553Y-81518421D01*
X151651000Y-81837391D01*
X151651000Y-82162609D01*
X151587553Y-82481579D01*
X151463097Y-82782042D01*
X151282415Y-83052451D01*
X151052451Y-83282415D01*
X150782042Y-83463097D01*
X150481579Y-83587553D01*
X150375256Y-83608702D01*
X150162611Y-83651000D01*
X149837389Y-83651000D01*
X149624744Y-83608702D01*
X149518421Y-83587553D01*
X149217958Y-83463097D01*
X148947549Y-83282415D01*
X148717585Y-83052451D01*
X148536903Y-82782042D01*
X148412447Y-82481579D01*
X148349000Y-82162609D01*
X148349000Y-81837391D01*
X148412447Y-81518421D01*
X148536903Y-81217958D01*
X148717585Y-80947549D01*
X148947549Y-80717585D01*
X149217958Y-80536903D01*
X149518421Y-80412447D01*
X149624744Y-80391298D01*
X149837389Y-80349000D01*
X150162611Y-80349000D01*
X150375256Y-80391298D01*
X150375256Y-80391298D01*
G37*
M02*
