G04 #@! TF.GenerationSoftware,KiCad,Pcbnew,(5.1.2)-1*
G04 #@! TF.CreationDate,2025-09-14T13:11:52+09:00*
G04 #@! TF.ProjectId,ots,6f74732e-6b69-4636-9164-5f7063625858,v1.1*
G04 #@! TF.SameCoordinates,Original*
G04 #@! TF.FileFunction,Paste,Top*
G04 #@! TF.FilePolarity,Positive*
%FSLAX46Y46*%
G04 Gerber Fmt 4.6, Leading zero omitted, Abs format (unit mm)*
G04 Created by KiCad (PCBNEW (5.1.2)-1) date 2025-09-14 13:11:52*
%MOMM*%
%LPD*%
G04 APERTURE LIST*
%ADD10R,1.060000X0.650000*%
%ADD11C,0.100000*%
%ADD12C,0.875000*%
%ADD13R,0.900000X0.800000*%
%ADD14C,0.975000*%
%ADD15R,0.490000X0.740000*%
%ADD16R,0.490000X0.840000*%
%ADD17O,1.800000X1.524000*%
G04 APERTURE END LIST*
D10*
X160300000Y-81250000D03*
X160300000Y-83150000D03*
X158100000Y-83150000D03*
X158100000Y-82200000D03*
X158100000Y-81250000D03*
D11*
G36*
X158252691Y-94126053D02*
G01*
X158273926Y-94129203D01*
X158294750Y-94134419D01*
X158314962Y-94141651D01*
X158334368Y-94150830D01*
X158352781Y-94161866D01*
X158370024Y-94174654D01*
X158385930Y-94189070D01*
X158400346Y-94204976D01*
X158413134Y-94222219D01*
X158424170Y-94240632D01*
X158433349Y-94260038D01*
X158440581Y-94280250D01*
X158445797Y-94301074D01*
X158448947Y-94322309D01*
X158450000Y-94343750D01*
X158450000Y-94856250D01*
X158448947Y-94877691D01*
X158445797Y-94898926D01*
X158440581Y-94919750D01*
X158433349Y-94939962D01*
X158424170Y-94959368D01*
X158413134Y-94977781D01*
X158400346Y-94995024D01*
X158385930Y-95010930D01*
X158370024Y-95025346D01*
X158352781Y-95038134D01*
X158334368Y-95049170D01*
X158314962Y-95058349D01*
X158294750Y-95065581D01*
X158273926Y-95070797D01*
X158252691Y-95073947D01*
X158231250Y-95075000D01*
X157793750Y-95075000D01*
X157772309Y-95073947D01*
X157751074Y-95070797D01*
X157730250Y-95065581D01*
X157710038Y-95058349D01*
X157690632Y-95049170D01*
X157672219Y-95038134D01*
X157654976Y-95025346D01*
X157639070Y-95010930D01*
X157624654Y-94995024D01*
X157611866Y-94977781D01*
X157600830Y-94959368D01*
X157591651Y-94939962D01*
X157584419Y-94919750D01*
X157579203Y-94898926D01*
X157576053Y-94877691D01*
X157575000Y-94856250D01*
X157575000Y-94343750D01*
X157576053Y-94322309D01*
X157579203Y-94301074D01*
X157584419Y-94280250D01*
X157591651Y-94260038D01*
X157600830Y-94240632D01*
X157611866Y-94222219D01*
X157624654Y-94204976D01*
X157639070Y-94189070D01*
X157654976Y-94174654D01*
X157672219Y-94161866D01*
X157690632Y-94150830D01*
X157710038Y-94141651D01*
X157730250Y-94134419D01*
X157751074Y-94129203D01*
X157772309Y-94126053D01*
X157793750Y-94125000D01*
X158231250Y-94125000D01*
X158252691Y-94126053D01*
X158252691Y-94126053D01*
G37*
D12*
X158012500Y-94600000D03*
D11*
G36*
X159827691Y-94126053D02*
G01*
X159848926Y-94129203D01*
X159869750Y-94134419D01*
X159889962Y-94141651D01*
X159909368Y-94150830D01*
X159927781Y-94161866D01*
X159945024Y-94174654D01*
X159960930Y-94189070D01*
X159975346Y-94204976D01*
X159988134Y-94222219D01*
X159999170Y-94240632D01*
X160008349Y-94260038D01*
X160015581Y-94280250D01*
X160020797Y-94301074D01*
X160023947Y-94322309D01*
X160025000Y-94343750D01*
X160025000Y-94856250D01*
X160023947Y-94877691D01*
X160020797Y-94898926D01*
X160015581Y-94919750D01*
X160008349Y-94939962D01*
X159999170Y-94959368D01*
X159988134Y-94977781D01*
X159975346Y-94995024D01*
X159960930Y-95010930D01*
X159945024Y-95025346D01*
X159927781Y-95038134D01*
X159909368Y-95049170D01*
X159889962Y-95058349D01*
X159869750Y-95065581D01*
X159848926Y-95070797D01*
X159827691Y-95073947D01*
X159806250Y-95075000D01*
X159368750Y-95075000D01*
X159347309Y-95073947D01*
X159326074Y-95070797D01*
X159305250Y-95065581D01*
X159285038Y-95058349D01*
X159265632Y-95049170D01*
X159247219Y-95038134D01*
X159229976Y-95025346D01*
X159214070Y-95010930D01*
X159199654Y-94995024D01*
X159186866Y-94977781D01*
X159175830Y-94959368D01*
X159166651Y-94939962D01*
X159159419Y-94919750D01*
X159154203Y-94898926D01*
X159151053Y-94877691D01*
X159150000Y-94856250D01*
X159150000Y-94343750D01*
X159151053Y-94322309D01*
X159154203Y-94301074D01*
X159159419Y-94280250D01*
X159166651Y-94260038D01*
X159175830Y-94240632D01*
X159186866Y-94222219D01*
X159199654Y-94204976D01*
X159214070Y-94189070D01*
X159229976Y-94174654D01*
X159247219Y-94161866D01*
X159265632Y-94150830D01*
X159285038Y-94141651D01*
X159305250Y-94134419D01*
X159326074Y-94129203D01*
X159347309Y-94126053D01*
X159368750Y-94125000D01*
X159806250Y-94125000D01*
X159827691Y-94126053D01*
X159827691Y-94126053D01*
G37*
D12*
X159587500Y-94600000D03*
D11*
G36*
X158252691Y-92026053D02*
G01*
X158273926Y-92029203D01*
X158294750Y-92034419D01*
X158314962Y-92041651D01*
X158334368Y-92050830D01*
X158352781Y-92061866D01*
X158370024Y-92074654D01*
X158385930Y-92089070D01*
X158400346Y-92104976D01*
X158413134Y-92122219D01*
X158424170Y-92140632D01*
X158433349Y-92160038D01*
X158440581Y-92180250D01*
X158445797Y-92201074D01*
X158448947Y-92222309D01*
X158450000Y-92243750D01*
X158450000Y-92756250D01*
X158448947Y-92777691D01*
X158445797Y-92798926D01*
X158440581Y-92819750D01*
X158433349Y-92839962D01*
X158424170Y-92859368D01*
X158413134Y-92877781D01*
X158400346Y-92895024D01*
X158385930Y-92910930D01*
X158370024Y-92925346D01*
X158352781Y-92938134D01*
X158334368Y-92949170D01*
X158314962Y-92958349D01*
X158294750Y-92965581D01*
X158273926Y-92970797D01*
X158252691Y-92973947D01*
X158231250Y-92975000D01*
X157793750Y-92975000D01*
X157772309Y-92973947D01*
X157751074Y-92970797D01*
X157730250Y-92965581D01*
X157710038Y-92958349D01*
X157690632Y-92949170D01*
X157672219Y-92938134D01*
X157654976Y-92925346D01*
X157639070Y-92910930D01*
X157624654Y-92895024D01*
X157611866Y-92877781D01*
X157600830Y-92859368D01*
X157591651Y-92839962D01*
X157584419Y-92819750D01*
X157579203Y-92798926D01*
X157576053Y-92777691D01*
X157575000Y-92756250D01*
X157575000Y-92243750D01*
X157576053Y-92222309D01*
X157579203Y-92201074D01*
X157584419Y-92180250D01*
X157591651Y-92160038D01*
X157600830Y-92140632D01*
X157611866Y-92122219D01*
X157624654Y-92104976D01*
X157639070Y-92089070D01*
X157654976Y-92074654D01*
X157672219Y-92061866D01*
X157690632Y-92050830D01*
X157710038Y-92041651D01*
X157730250Y-92034419D01*
X157751074Y-92029203D01*
X157772309Y-92026053D01*
X157793750Y-92025000D01*
X158231250Y-92025000D01*
X158252691Y-92026053D01*
X158252691Y-92026053D01*
G37*
D12*
X158012500Y-92500000D03*
D11*
G36*
X159827691Y-92026053D02*
G01*
X159848926Y-92029203D01*
X159869750Y-92034419D01*
X159889962Y-92041651D01*
X159909368Y-92050830D01*
X159927781Y-92061866D01*
X159945024Y-92074654D01*
X159960930Y-92089070D01*
X159975346Y-92104976D01*
X159988134Y-92122219D01*
X159999170Y-92140632D01*
X160008349Y-92160038D01*
X160015581Y-92180250D01*
X160020797Y-92201074D01*
X160023947Y-92222309D01*
X160025000Y-92243750D01*
X160025000Y-92756250D01*
X160023947Y-92777691D01*
X160020797Y-92798926D01*
X160015581Y-92819750D01*
X160008349Y-92839962D01*
X159999170Y-92859368D01*
X159988134Y-92877781D01*
X159975346Y-92895024D01*
X159960930Y-92910930D01*
X159945024Y-92925346D01*
X159927781Y-92938134D01*
X159909368Y-92949170D01*
X159889962Y-92958349D01*
X159869750Y-92965581D01*
X159848926Y-92970797D01*
X159827691Y-92973947D01*
X159806250Y-92975000D01*
X159368750Y-92975000D01*
X159347309Y-92973947D01*
X159326074Y-92970797D01*
X159305250Y-92965581D01*
X159285038Y-92958349D01*
X159265632Y-92949170D01*
X159247219Y-92938134D01*
X159229976Y-92925346D01*
X159214070Y-92910930D01*
X159199654Y-92895024D01*
X159186866Y-92877781D01*
X159175830Y-92859368D01*
X159166651Y-92839962D01*
X159159419Y-92819750D01*
X159154203Y-92798926D01*
X159151053Y-92777691D01*
X159150000Y-92756250D01*
X159150000Y-92243750D01*
X159151053Y-92222309D01*
X159154203Y-92201074D01*
X159159419Y-92180250D01*
X159166651Y-92160038D01*
X159175830Y-92140632D01*
X159186866Y-92122219D01*
X159199654Y-92104976D01*
X159214070Y-92089070D01*
X159229976Y-92074654D01*
X159247219Y-92061866D01*
X159265632Y-92050830D01*
X159285038Y-92041651D01*
X159305250Y-92034419D01*
X159326074Y-92029203D01*
X159347309Y-92026053D01*
X159368750Y-92025000D01*
X159806250Y-92025000D01*
X159827691Y-92026053D01*
X159827691Y-92026053D01*
G37*
D12*
X159587500Y-92500000D03*
D13*
X154000000Y-98500000D03*
X156000000Y-97550000D03*
X156000000Y-99450000D03*
X157600000Y-98500000D03*
X159600000Y-97550000D03*
X159600000Y-99450000D03*
D11*
G36*
X162777691Y-82551053D02*
G01*
X162798926Y-82554203D01*
X162819750Y-82559419D01*
X162839962Y-82566651D01*
X162859368Y-82575830D01*
X162877781Y-82586866D01*
X162895024Y-82599654D01*
X162910930Y-82614070D01*
X162925346Y-82629976D01*
X162938134Y-82647219D01*
X162949170Y-82665632D01*
X162958349Y-82685038D01*
X162965581Y-82705250D01*
X162970797Y-82726074D01*
X162973947Y-82747309D01*
X162975000Y-82768750D01*
X162975000Y-83206250D01*
X162973947Y-83227691D01*
X162970797Y-83248926D01*
X162965581Y-83269750D01*
X162958349Y-83289962D01*
X162949170Y-83309368D01*
X162938134Y-83327781D01*
X162925346Y-83345024D01*
X162910930Y-83360930D01*
X162895024Y-83375346D01*
X162877781Y-83388134D01*
X162859368Y-83399170D01*
X162839962Y-83408349D01*
X162819750Y-83415581D01*
X162798926Y-83420797D01*
X162777691Y-83423947D01*
X162756250Y-83425000D01*
X162243750Y-83425000D01*
X162222309Y-83423947D01*
X162201074Y-83420797D01*
X162180250Y-83415581D01*
X162160038Y-83408349D01*
X162140632Y-83399170D01*
X162122219Y-83388134D01*
X162104976Y-83375346D01*
X162089070Y-83360930D01*
X162074654Y-83345024D01*
X162061866Y-83327781D01*
X162050830Y-83309368D01*
X162041651Y-83289962D01*
X162034419Y-83269750D01*
X162029203Y-83248926D01*
X162026053Y-83227691D01*
X162025000Y-83206250D01*
X162025000Y-82768750D01*
X162026053Y-82747309D01*
X162029203Y-82726074D01*
X162034419Y-82705250D01*
X162041651Y-82685038D01*
X162050830Y-82665632D01*
X162061866Y-82647219D01*
X162074654Y-82629976D01*
X162089070Y-82614070D01*
X162104976Y-82599654D01*
X162122219Y-82586866D01*
X162140632Y-82575830D01*
X162160038Y-82566651D01*
X162180250Y-82559419D01*
X162201074Y-82554203D01*
X162222309Y-82551053D01*
X162243750Y-82550000D01*
X162756250Y-82550000D01*
X162777691Y-82551053D01*
X162777691Y-82551053D01*
G37*
D12*
X162500000Y-82987500D03*
D11*
G36*
X162777691Y-80976053D02*
G01*
X162798926Y-80979203D01*
X162819750Y-80984419D01*
X162839962Y-80991651D01*
X162859368Y-81000830D01*
X162877781Y-81011866D01*
X162895024Y-81024654D01*
X162910930Y-81039070D01*
X162925346Y-81054976D01*
X162938134Y-81072219D01*
X162949170Y-81090632D01*
X162958349Y-81110038D01*
X162965581Y-81130250D01*
X162970797Y-81151074D01*
X162973947Y-81172309D01*
X162975000Y-81193750D01*
X162975000Y-81631250D01*
X162973947Y-81652691D01*
X162970797Y-81673926D01*
X162965581Y-81694750D01*
X162958349Y-81714962D01*
X162949170Y-81734368D01*
X162938134Y-81752781D01*
X162925346Y-81770024D01*
X162910930Y-81785930D01*
X162895024Y-81800346D01*
X162877781Y-81813134D01*
X162859368Y-81824170D01*
X162839962Y-81833349D01*
X162819750Y-81840581D01*
X162798926Y-81845797D01*
X162777691Y-81848947D01*
X162756250Y-81850000D01*
X162243750Y-81850000D01*
X162222309Y-81848947D01*
X162201074Y-81845797D01*
X162180250Y-81840581D01*
X162160038Y-81833349D01*
X162140632Y-81824170D01*
X162122219Y-81813134D01*
X162104976Y-81800346D01*
X162089070Y-81785930D01*
X162074654Y-81770024D01*
X162061866Y-81752781D01*
X162050830Y-81734368D01*
X162041651Y-81714962D01*
X162034419Y-81694750D01*
X162029203Y-81673926D01*
X162026053Y-81652691D01*
X162025000Y-81631250D01*
X162025000Y-81193750D01*
X162026053Y-81172309D01*
X162029203Y-81151074D01*
X162034419Y-81130250D01*
X162041651Y-81110038D01*
X162050830Y-81090632D01*
X162061866Y-81072219D01*
X162074654Y-81054976D01*
X162089070Y-81039070D01*
X162104976Y-81024654D01*
X162122219Y-81011866D01*
X162140632Y-81000830D01*
X162160038Y-80991651D01*
X162180250Y-80984419D01*
X162201074Y-80979203D01*
X162222309Y-80976053D01*
X162243750Y-80975000D01*
X162756250Y-80975000D01*
X162777691Y-80976053D01*
X162777691Y-80976053D01*
G37*
D12*
X162500000Y-81412500D03*
D11*
G36*
X158652691Y-84726053D02*
G01*
X158673926Y-84729203D01*
X158694750Y-84734419D01*
X158714962Y-84741651D01*
X158734368Y-84750830D01*
X158752781Y-84761866D01*
X158770024Y-84774654D01*
X158785930Y-84789070D01*
X158800346Y-84804976D01*
X158813134Y-84822219D01*
X158824170Y-84840632D01*
X158833349Y-84860038D01*
X158840581Y-84880250D01*
X158845797Y-84901074D01*
X158848947Y-84922309D01*
X158850000Y-84943750D01*
X158850000Y-85456250D01*
X158848947Y-85477691D01*
X158845797Y-85498926D01*
X158840581Y-85519750D01*
X158833349Y-85539962D01*
X158824170Y-85559368D01*
X158813134Y-85577781D01*
X158800346Y-85595024D01*
X158785930Y-85610930D01*
X158770024Y-85625346D01*
X158752781Y-85638134D01*
X158734368Y-85649170D01*
X158714962Y-85658349D01*
X158694750Y-85665581D01*
X158673926Y-85670797D01*
X158652691Y-85673947D01*
X158631250Y-85675000D01*
X158193750Y-85675000D01*
X158172309Y-85673947D01*
X158151074Y-85670797D01*
X158130250Y-85665581D01*
X158110038Y-85658349D01*
X158090632Y-85649170D01*
X158072219Y-85638134D01*
X158054976Y-85625346D01*
X158039070Y-85610930D01*
X158024654Y-85595024D01*
X158011866Y-85577781D01*
X158000830Y-85559368D01*
X157991651Y-85539962D01*
X157984419Y-85519750D01*
X157979203Y-85498926D01*
X157976053Y-85477691D01*
X157975000Y-85456250D01*
X157975000Y-84943750D01*
X157976053Y-84922309D01*
X157979203Y-84901074D01*
X157984419Y-84880250D01*
X157991651Y-84860038D01*
X158000830Y-84840632D01*
X158011866Y-84822219D01*
X158024654Y-84804976D01*
X158039070Y-84789070D01*
X158054976Y-84774654D01*
X158072219Y-84761866D01*
X158090632Y-84750830D01*
X158110038Y-84741651D01*
X158130250Y-84734419D01*
X158151074Y-84729203D01*
X158172309Y-84726053D01*
X158193750Y-84725000D01*
X158631250Y-84725000D01*
X158652691Y-84726053D01*
X158652691Y-84726053D01*
G37*
D12*
X158412500Y-85200000D03*
D11*
G36*
X160227691Y-84726053D02*
G01*
X160248926Y-84729203D01*
X160269750Y-84734419D01*
X160289962Y-84741651D01*
X160309368Y-84750830D01*
X160327781Y-84761866D01*
X160345024Y-84774654D01*
X160360930Y-84789070D01*
X160375346Y-84804976D01*
X160388134Y-84822219D01*
X160399170Y-84840632D01*
X160408349Y-84860038D01*
X160415581Y-84880250D01*
X160420797Y-84901074D01*
X160423947Y-84922309D01*
X160425000Y-84943750D01*
X160425000Y-85456250D01*
X160423947Y-85477691D01*
X160420797Y-85498926D01*
X160415581Y-85519750D01*
X160408349Y-85539962D01*
X160399170Y-85559368D01*
X160388134Y-85577781D01*
X160375346Y-85595024D01*
X160360930Y-85610930D01*
X160345024Y-85625346D01*
X160327781Y-85638134D01*
X160309368Y-85649170D01*
X160289962Y-85658349D01*
X160269750Y-85665581D01*
X160248926Y-85670797D01*
X160227691Y-85673947D01*
X160206250Y-85675000D01*
X159768750Y-85675000D01*
X159747309Y-85673947D01*
X159726074Y-85670797D01*
X159705250Y-85665581D01*
X159685038Y-85658349D01*
X159665632Y-85649170D01*
X159647219Y-85638134D01*
X159629976Y-85625346D01*
X159614070Y-85610930D01*
X159599654Y-85595024D01*
X159586866Y-85577781D01*
X159575830Y-85559368D01*
X159566651Y-85539962D01*
X159559419Y-85519750D01*
X159554203Y-85498926D01*
X159551053Y-85477691D01*
X159550000Y-85456250D01*
X159550000Y-84943750D01*
X159551053Y-84922309D01*
X159554203Y-84901074D01*
X159559419Y-84880250D01*
X159566651Y-84860038D01*
X159575830Y-84840632D01*
X159586866Y-84822219D01*
X159599654Y-84804976D01*
X159614070Y-84789070D01*
X159629976Y-84774654D01*
X159647219Y-84761866D01*
X159665632Y-84750830D01*
X159685038Y-84741651D01*
X159705250Y-84734419D01*
X159726074Y-84729203D01*
X159747309Y-84726053D01*
X159768750Y-84725000D01*
X160206250Y-84725000D01*
X160227691Y-84726053D01*
X160227691Y-84726053D01*
G37*
D12*
X159987500Y-85200000D03*
D11*
G36*
X156180142Y-82651174D02*
G01*
X156203803Y-82654684D01*
X156227007Y-82660496D01*
X156249529Y-82668554D01*
X156271153Y-82678782D01*
X156291670Y-82691079D01*
X156310883Y-82705329D01*
X156328607Y-82721393D01*
X156344671Y-82739117D01*
X156358921Y-82758330D01*
X156371218Y-82778847D01*
X156381446Y-82800471D01*
X156389504Y-82822993D01*
X156395316Y-82846197D01*
X156398826Y-82869858D01*
X156400000Y-82893750D01*
X156400000Y-83381250D01*
X156398826Y-83405142D01*
X156395316Y-83428803D01*
X156389504Y-83452007D01*
X156381446Y-83474529D01*
X156371218Y-83496153D01*
X156358921Y-83516670D01*
X156344671Y-83535883D01*
X156328607Y-83553607D01*
X156310883Y-83569671D01*
X156291670Y-83583921D01*
X156271153Y-83596218D01*
X156249529Y-83606446D01*
X156227007Y-83614504D01*
X156203803Y-83620316D01*
X156180142Y-83623826D01*
X156156250Y-83625000D01*
X155243750Y-83625000D01*
X155219858Y-83623826D01*
X155196197Y-83620316D01*
X155172993Y-83614504D01*
X155150471Y-83606446D01*
X155128847Y-83596218D01*
X155108330Y-83583921D01*
X155089117Y-83569671D01*
X155071393Y-83553607D01*
X155055329Y-83535883D01*
X155041079Y-83516670D01*
X155028782Y-83496153D01*
X155018554Y-83474529D01*
X155010496Y-83452007D01*
X155004684Y-83428803D01*
X155001174Y-83405142D01*
X155000000Y-83381250D01*
X155000000Y-82893750D01*
X155001174Y-82869858D01*
X155004684Y-82846197D01*
X155010496Y-82822993D01*
X155018554Y-82800471D01*
X155028782Y-82778847D01*
X155041079Y-82758330D01*
X155055329Y-82739117D01*
X155071393Y-82721393D01*
X155089117Y-82705329D01*
X155108330Y-82691079D01*
X155128847Y-82678782D01*
X155150471Y-82668554D01*
X155172993Y-82660496D01*
X155196197Y-82654684D01*
X155219858Y-82651174D01*
X155243750Y-82650000D01*
X156156250Y-82650000D01*
X156180142Y-82651174D01*
X156180142Y-82651174D01*
G37*
D14*
X155700000Y-83137500D03*
D11*
G36*
X156180142Y-80776174D02*
G01*
X156203803Y-80779684D01*
X156227007Y-80785496D01*
X156249529Y-80793554D01*
X156271153Y-80803782D01*
X156291670Y-80816079D01*
X156310883Y-80830329D01*
X156328607Y-80846393D01*
X156344671Y-80864117D01*
X156358921Y-80883330D01*
X156371218Y-80903847D01*
X156381446Y-80925471D01*
X156389504Y-80947993D01*
X156395316Y-80971197D01*
X156398826Y-80994858D01*
X156400000Y-81018750D01*
X156400000Y-81506250D01*
X156398826Y-81530142D01*
X156395316Y-81553803D01*
X156389504Y-81577007D01*
X156381446Y-81599529D01*
X156371218Y-81621153D01*
X156358921Y-81641670D01*
X156344671Y-81660883D01*
X156328607Y-81678607D01*
X156310883Y-81694671D01*
X156291670Y-81708921D01*
X156271153Y-81721218D01*
X156249529Y-81731446D01*
X156227007Y-81739504D01*
X156203803Y-81745316D01*
X156180142Y-81748826D01*
X156156250Y-81750000D01*
X155243750Y-81750000D01*
X155219858Y-81748826D01*
X155196197Y-81745316D01*
X155172993Y-81739504D01*
X155150471Y-81731446D01*
X155128847Y-81721218D01*
X155108330Y-81708921D01*
X155089117Y-81694671D01*
X155071393Y-81678607D01*
X155055329Y-81660883D01*
X155041079Y-81641670D01*
X155028782Y-81621153D01*
X155018554Y-81599529D01*
X155010496Y-81577007D01*
X155004684Y-81553803D01*
X155001174Y-81530142D01*
X155000000Y-81506250D01*
X155000000Y-81018750D01*
X155001174Y-80994858D01*
X155004684Y-80971197D01*
X155010496Y-80947993D01*
X155018554Y-80925471D01*
X155028782Y-80903847D01*
X155041079Y-80883330D01*
X155055329Y-80864117D01*
X155071393Y-80846393D01*
X155089117Y-80830329D01*
X155108330Y-80816079D01*
X155128847Y-80803782D01*
X155150471Y-80793554D01*
X155172993Y-80785496D01*
X155196197Y-80779684D01*
X155219858Y-80776174D01*
X155243750Y-80775000D01*
X156156250Y-80775000D01*
X156180142Y-80776174D01*
X156180142Y-80776174D01*
G37*
D14*
X155700000Y-81262500D03*
D15*
X162800000Y-90355000D03*
X163600000Y-90355000D03*
X164400000Y-90355000D03*
X165200000Y-90355000D03*
X165200000Y-92645000D03*
X164400000Y-92645000D03*
X163600000Y-92645000D03*
D16*
X162800000Y-92600000D03*
D11*
G36*
X164852691Y-82626053D02*
G01*
X164873926Y-82629203D01*
X164894750Y-82634419D01*
X164914962Y-82641651D01*
X164934368Y-82650830D01*
X164952781Y-82661866D01*
X164970024Y-82674654D01*
X164985930Y-82689070D01*
X165000346Y-82704976D01*
X165013134Y-82722219D01*
X165024170Y-82740632D01*
X165033349Y-82760038D01*
X165040581Y-82780250D01*
X165045797Y-82801074D01*
X165048947Y-82822309D01*
X165050000Y-82843750D01*
X165050000Y-83356250D01*
X165048947Y-83377691D01*
X165045797Y-83398926D01*
X165040581Y-83419750D01*
X165033349Y-83439962D01*
X165024170Y-83459368D01*
X165013134Y-83477781D01*
X165000346Y-83495024D01*
X164985930Y-83510930D01*
X164970024Y-83525346D01*
X164952781Y-83538134D01*
X164934368Y-83549170D01*
X164914962Y-83558349D01*
X164894750Y-83565581D01*
X164873926Y-83570797D01*
X164852691Y-83573947D01*
X164831250Y-83575000D01*
X164393750Y-83575000D01*
X164372309Y-83573947D01*
X164351074Y-83570797D01*
X164330250Y-83565581D01*
X164310038Y-83558349D01*
X164290632Y-83549170D01*
X164272219Y-83538134D01*
X164254976Y-83525346D01*
X164239070Y-83510930D01*
X164224654Y-83495024D01*
X164211866Y-83477781D01*
X164200830Y-83459368D01*
X164191651Y-83439962D01*
X164184419Y-83419750D01*
X164179203Y-83398926D01*
X164176053Y-83377691D01*
X164175000Y-83356250D01*
X164175000Y-82843750D01*
X164176053Y-82822309D01*
X164179203Y-82801074D01*
X164184419Y-82780250D01*
X164191651Y-82760038D01*
X164200830Y-82740632D01*
X164211866Y-82722219D01*
X164224654Y-82704976D01*
X164239070Y-82689070D01*
X164254976Y-82674654D01*
X164272219Y-82661866D01*
X164290632Y-82650830D01*
X164310038Y-82641651D01*
X164330250Y-82634419D01*
X164351074Y-82629203D01*
X164372309Y-82626053D01*
X164393750Y-82625000D01*
X164831250Y-82625000D01*
X164852691Y-82626053D01*
X164852691Y-82626053D01*
G37*
D12*
X164612500Y-83100000D03*
D11*
G36*
X166427691Y-82626053D02*
G01*
X166448926Y-82629203D01*
X166469750Y-82634419D01*
X166489962Y-82641651D01*
X166509368Y-82650830D01*
X166527781Y-82661866D01*
X166545024Y-82674654D01*
X166560930Y-82689070D01*
X166575346Y-82704976D01*
X166588134Y-82722219D01*
X166599170Y-82740632D01*
X166608349Y-82760038D01*
X166615581Y-82780250D01*
X166620797Y-82801074D01*
X166623947Y-82822309D01*
X166625000Y-82843750D01*
X166625000Y-83356250D01*
X166623947Y-83377691D01*
X166620797Y-83398926D01*
X166615581Y-83419750D01*
X166608349Y-83439962D01*
X166599170Y-83459368D01*
X166588134Y-83477781D01*
X166575346Y-83495024D01*
X166560930Y-83510930D01*
X166545024Y-83525346D01*
X166527781Y-83538134D01*
X166509368Y-83549170D01*
X166489962Y-83558349D01*
X166469750Y-83565581D01*
X166448926Y-83570797D01*
X166427691Y-83573947D01*
X166406250Y-83575000D01*
X165968750Y-83575000D01*
X165947309Y-83573947D01*
X165926074Y-83570797D01*
X165905250Y-83565581D01*
X165885038Y-83558349D01*
X165865632Y-83549170D01*
X165847219Y-83538134D01*
X165829976Y-83525346D01*
X165814070Y-83510930D01*
X165799654Y-83495024D01*
X165786866Y-83477781D01*
X165775830Y-83459368D01*
X165766651Y-83439962D01*
X165759419Y-83419750D01*
X165754203Y-83398926D01*
X165751053Y-83377691D01*
X165750000Y-83356250D01*
X165750000Y-82843750D01*
X165751053Y-82822309D01*
X165754203Y-82801074D01*
X165759419Y-82780250D01*
X165766651Y-82760038D01*
X165775830Y-82740632D01*
X165786866Y-82722219D01*
X165799654Y-82704976D01*
X165814070Y-82689070D01*
X165829976Y-82674654D01*
X165847219Y-82661866D01*
X165865632Y-82650830D01*
X165885038Y-82641651D01*
X165905250Y-82634419D01*
X165926074Y-82629203D01*
X165947309Y-82626053D01*
X165968750Y-82625000D01*
X166406250Y-82625000D01*
X166427691Y-82626053D01*
X166427691Y-82626053D01*
G37*
D12*
X166187500Y-83100000D03*
D11*
G36*
X166427691Y-80826053D02*
G01*
X166448926Y-80829203D01*
X166469750Y-80834419D01*
X166489962Y-80841651D01*
X166509368Y-80850830D01*
X166527781Y-80861866D01*
X166545024Y-80874654D01*
X166560930Y-80889070D01*
X166575346Y-80904976D01*
X166588134Y-80922219D01*
X166599170Y-80940632D01*
X166608349Y-80960038D01*
X166615581Y-80980250D01*
X166620797Y-81001074D01*
X166623947Y-81022309D01*
X166625000Y-81043750D01*
X166625000Y-81556250D01*
X166623947Y-81577691D01*
X166620797Y-81598926D01*
X166615581Y-81619750D01*
X166608349Y-81639962D01*
X166599170Y-81659368D01*
X166588134Y-81677781D01*
X166575346Y-81695024D01*
X166560930Y-81710930D01*
X166545024Y-81725346D01*
X166527781Y-81738134D01*
X166509368Y-81749170D01*
X166489962Y-81758349D01*
X166469750Y-81765581D01*
X166448926Y-81770797D01*
X166427691Y-81773947D01*
X166406250Y-81775000D01*
X165968750Y-81775000D01*
X165947309Y-81773947D01*
X165926074Y-81770797D01*
X165905250Y-81765581D01*
X165885038Y-81758349D01*
X165865632Y-81749170D01*
X165847219Y-81738134D01*
X165829976Y-81725346D01*
X165814070Y-81710930D01*
X165799654Y-81695024D01*
X165786866Y-81677781D01*
X165775830Y-81659368D01*
X165766651Y-81639962D01*
X165759419Y-81619750D01*
X165754203Y-81598926D01*
X165751053Y-81577691D01*
X165750000Y-81556250D01*
X165750000Y-81043750D01*
X165751053Y-81022309D01*
X165754203Y-81001074D01*
X165759419Y-80980250D01*
X165766651Y-80960038D01*
X165775830Y-80940632D01*
X165786866Y-80922219D01*
X165799654Y-80904976D01*
X165814070Y-80889070D01*
X165829976Y-80874654D01*
X165847219Y-80861866D01*
X165865632Y-80850830D01*
X165885038Y-80841651D01*
X165905250Y-80834419D01*
X165926074Y-80829203D01*
X165947309Y-80826053D01*
X165968750Y-80825000D01*
X166406250Y-80825000D01*
X166427691Y-80826053D01*
X166427691Y-80826053D01*
G37*
D12*
X166187500Y-81300000D03*
D11*
G36*
X164852691Y-80826053D02*
G01*
X164873926Y-80829203D01*
X164894750Y-80834419D01*
X164914962Y-80841651D01*
X164934368Y-80850830D01*
X164952781Y-80861866D01*
X164970024Y-80874654D01*
X164985930Y-80889070D01*
X165000346Y-80904976D01*
X165013134Y-80922219D01*
X165024170Y-80940632D01*
X165033349Y-80960038D01*
X165040581Y-80980250D01*
X165045797Y-81001074D01*
X165048947Y-81022309D01*
X165050000Y-81043750D01*
X165050000Y-81556250D01*
X165048947Y-81577691D01*
X165045797Y-81598926D01*
X165040581Y-81619750D01*
X165033349Y-81639962D01*
X165024170Y-81659368D01*
X165013134Y-81677781D01*
X165000346Y-81695024D01*
X164985930Y-81710930D01*
X164970024Y-81725346D01*
X164952781Y-81738134D01*
X164934368Y-81749170D01*
X164914962Y-81758349D01*
X164894750Y-81765581D01*
X164873926Y-81770797D01*
X164852691Y-81773947D01*
X164831250Y-81775000D01*
X164393750Y-81775000D01*
X164372309Y-81773947D01*
X164351074Y-81770797D01*
X164330250Y-81765581D01*
X164310038Y-81758349D01*
X164290632Y-81749170D01*
X164272219Y-81738134D01*
X164254976Y-81725346D01*
X164239070Y-81710930D01*
X164224654Y-81695024D01*
X164211866Y-81677781D01*
X164200830Y-81659368D01*
X164191651Y-81639962D01*
X164184419Y-81619750D01*
X164179203Y-81598926D01*
X164176053Y-81577691D01*
X164175000Y-81556250D01*
X164175000Y-81043750D01*
X164176053Y-81022309D01*
X164179203Y-81001074D01*
X164184419Y-80980250D01*
X164191651Y-80960038D01*
X164200830Y-80940632D01*
X164211866Y-80922219D01*
X164224654Y-80904976D01*
X164239070Y-80889070D01*
X164254976Y-80874654D01*
X164272219Y-80861866D01*
X164290632Y-80850830D01*
X164310038Y-80841651D01*
X164330250Y-80834419D01*
X164351074Y-80829203D01*
X164372309Y-80826053D01*
X164393750Y-80825000D01*
X164831250Y-80825000D01*
X164852691Y-80826053D01*
X164852691Y-80826053D01*
G37*
D12*
X164612500Y-81300000D03*
D11*
G36*
X168652691Y-80826053D02*
G01*
X168673926Y-80829203D01*
X168694750Y-80834419D01*
X168714962Y-80841651D01*
X168734368Y-80850830D01*
X168752781Y-80861866D01*
X168770024Y-80874654D01*
X168785930Y-80889070D01*
X168800346Y-80904976D01*
X168813134Y-80922219D01*
X168824170Y-80940632D01*
X168833349Y-80960038D01*
X168840581Y-80980250D01*
X168845797Y-81001074D01*
X168848947Y-81022309D01*
X168850000Y-81043750D01*
X168850000Y-81556250D01*
X168848947Y-81577691D01*
X168845797Y-81598926D01*
X168840581Y-81619750D01*
X168833349Y-81639962D01*
X168824170Y-81659368D01*
X168813134Y-81677781D01*
X168800346Y-81695024D01*
X168785930Y-81710930D01*
X168770024Y-81725346D01*
X168752781Y-81738134D01*
X168734368Y-81749170D01*
X168714962Y-81758349D01*
X168694750Y-81765581D01*
X168673926Y-81770797D01*
X168652691Y-81773947D01*
X168631250Y-81775000D01*
X168193750Y-81775000D01*
X168172309Y-81773947D01*
X168151074Y-81770797D01*
X168130250Y-81765581D01*
X168110038Y-81758349D01*
X168090632Y-81749170D01*
X168072219Y-81738134D01*
X168054976Y-81725346D01*
X168039070Y-81710930D01*
X168024654Y-81695024D01*
X168011866Y-81677781D01*
X168000830Y-81659368D01*
X167991651Y-81639962D01*
X167984419Y-81619750D01*
X167979203Y-81598926D01*
X167976053Y-81577691D01*
X167975000Y-81556250D01*
X167975000Y-81043750D01*
X167976053Y-81022309D01*
X167979203Y-81001074D01*
X167984419Y-80980250D01*
X167991651Y-80960038D01*
X168000830Y-80940632D01*
X168011866Y-80922219D01*
X168024654Y-80904976D01*
X168039070Y-80889070D01*
X168054976Y-80874654D01*
X168072219Y-80861866D01*
X168090632Y-80850830D01*
X168110038Y-80841651D01*
X168130250Y-80834419D01*
X168151074Y-80829203D01*
X168172309Y-80826053D01*
X168193750Y-80825000D01*
X168631250Y-80825000D01*
X168652691Y-80826053D01*
X168652691Y-80826053D01*
G37*
D12*
X168412500Y-81300000D03*
D11*
G36*
X170227691Y-80826053D02*
G01*
X170248926Y-80829203D01*
X170269750Y-80834419D01*
X170289962Y-80841651D01*
X170309368Y-80850830D01*
X170327781Y-80861866D01*
X170345024Y-80874654D01*
X170360930Y-80889070D01*
X170375346Y-80904976D01*
X170388134Y-80922219D01*
X170399170Y-80940632D01*
X170408349Y-80960038D01*
X170415581Y-80980250D01*
X170420797Y-81001074D01*
X170423947Y-81022309D01*
X170425000Y-81043750D01*
X170425000Y-81556250D01*
X170423947Y-81577691D01*
X170420797Y-81598926D01*
X170415581Y-81619750D01*
X170408349Y-81639962D01*
X170399170Y-81659368D01*
X170388134Y-81677781D01*
X170375346Y-81695024D01*
X170360930Y-81710930D01*
X170345024Y-81725346D01*
X170327781Y-81738134D01*
X170309368Y-81749170D01*
X170289962Y-81758349D01*
X170269750Y-81765581D01*
X170248926Y-81770797D01*
X170227691Y-81773947D01*
X170206250Y-81775000D01*
X169768750Y-81775000D01*
X169747309Y-81773947D01*
X169726074Y-81770797D01*
X169705250Y-81765581D01*
X169685038Y-81758349D01*
X169665632Y-81749170D01*
X169647219Y-81738134D01*
X169629976Y-81725346D01*
X169614070Y-81710930D01*
X169599654Y-81695024D01*
X169586866Y-81677781D01*
X169575830Y-81659368D01*
X169566651Y-81639962D01*
X169559419Y-81619750D01*
X169554203Y-81598926D01*
X169551053Y-81577691D01*
X169550000Y-81556250D01*
X169550000Y-81043750D01*
X169551053Y-81022309D01*
X169554203Y-81001074D01*
X169559419Y-80980250D01*
X169566651Y-80960038D01*
X169575830Y-80940632D01*
X169586866Y-80922219D01*
X169599654Y-80904976D01*
X169614070Y-80889070D01*
X169629976Y-80874654D01*
X169647219Y-80861866D01*
X169665632Y-80850830D01*
X169685038Y-80841651D01*
X169705250Y-80834419D01*
X169726074Y-80829203D01*
X169747309Y-80826053D01*
X169768750Y-80825000D01*
X170206250Y-80825000D01*
X170227691Y-80826053D01*
X170227691Y-80826053D01*
G37*
D12*
X169987500Y-81300000D03*
D11*
G36*
X168652691Y-82626053D02*
G01*
X168673926Y-82629203D01*
X168694750Y-82634419D01*
X168714962Y-82641651D01*
X168734368Y-82650830D01*
X168752781Y-82661866D01*
X168770024Y-82674654D01*
X168785930Y-82689070D01*
X168800346Y-82704976D01*
X168813134Y-82722219D01*
X168824170Y-82740632D01*
X168833349Y-82760038D01*
X168840581Y-82780250D01*
X168845797Y-82801074D01*
X168848947Y-82822309D01*
X168850000Y-82843750D01*
X168850000Y-83356250D01*
X168848947Y-83377691D01*
X168845797Y-83398926D01*
X168840581Y-83419750D01*
X168833349Y-83439962D01*
X168824170Y-83459368D01*
X168813134Y-83477781D01*
X168800346Y-83495024D01*
X168785930Y-83510930D01*
X168770024Y-83525346D01*
X168752781Y-83538134D01*
X168734368Y-83549170D01*
X168714962Y-83558349D01*
X168694750Y-83565581D01*
X168673926Y-83570797D01*
X168652691Y-83573947D01*
X168631250Y-83575000D01*
X168193750Y-83575000D01*
X168172309Y-83573947D01*
X168151074Y-83570797D01*
X168130250Y-83565581D01*
X168110038Y-83558349D01*
X168090632Y-83549170D01*
X168072219Y-83538134D01*
X168054976Y-83525346D01*
X168039070Y-83510930D01*
X168024654Y-83495024D01*
X168011866Y-83477781D01*
X168000830Y-83459368D01*
X167991651Y-83439962D01*
X167984419Y-83419750D01*
X167979203Y-83398926D01*
X167976053Y-83377691D01*
X167975000Y-83356250D01*
X167975000Y-82843750D01*
X167976053Y-82822309D01*
X167979203Y-82801074D01*
X167984419Y-82780250D01*
X167991651Y-82760038D01*
X168000830Y-82740632D01*
X168011866Y-82722219D01*
X168024654Y-82704976D01*
X168039070Y-82689070D01*
X168054976Y-82674654D01*
X168072219Y-82661866D01*
X168090632Y-82650830D01*
X168110038Y-82641651D01*
X168130250Y-82634419D01*
X168151074Y-82629203D01*
X168172309Y-82626053D01*
X168193750Y-82625000D01*
X168631250Y-82625000D01*
X168652691Y-82626053D01*
X168652691Y-82626053D01*
G37*
D12*
X168412500Y-83100000D03*
D11*
G36*
X170227691Y-82626053D02*
G01*
X170248926Y-82629203D01*
X170269750Y-82634419D01*
X170289962Y-82641651D01*
X170309368Y-82650830D01*
X170327781Y-82661866D01*
X170345024Y-82674654D01*
X170360930Y-82689070D01*
X170375346Y-82704976D01*
X170388134Y-82722219D01*
X170399170Y-82740632D01*
X170408349Y-82760038D01*
X170415581Y-82780250D01*
X170420797Y-82801074D01*
X170423947Y-82822309D01*
X170425000Y-82843750D01*
X170425000Y-83356250D01*
X170423947Y-83377691D01*
X170420797Y-83398926D01*
X170415581Y-83419750D01*
X170408349Y-83439962D01*
X170399170Y-83459368D01*
X170388134Y-83477781D01*
X170375346Y-83495024D01*
X170360930Y-83510930D01*
X170345024Y-83525346D01*
X170327781Y-83538134D01*
X170309368Y-83549170D01*
X170289962Y-83558349D01*
X170269750Y-83565581D01*
X170248926Y-83570797D01*
X170227691Y-83573947D01*
X170206250Y-83575000D01*
X169768750Y-83575000D01*
X169747309Y-83573947D01*
X169726074Y-83570797D01*
X169705250Y-83565581D01*
X169685038Y-83558349D01*
X169665632Y-83549170D01*
X169647219Y-83538134D01*
X169629976Y-83525346D01*
X169614070Y-83510930D01*
X169599654Y-83495024D01*
X169586866Y-83477781D01*
X169575830Y-83459368D01*
X169566651Y-83439962D01*
X169559419Y-83419750D01*
X169554203Y-83398926D01*
X169551053Y-83377691D01*
X169550000Y-83356250D01*
X169550000Y-82843750D01*
X169551053Y-82822309D01*
X169554203Y-82801074D01*
X169559419Y-82780250D01*
X169566651Y-82760038D01*
X169575830Y-82740632D01*
X169586866Y-82722219D01*
X169599654Y-82704976D01*
X169614070Y-82689070D01*
X169629976Y-82674654D01*
X169647219Y-82661866D01*
X169665632Y-82650830D01*
X169685038Y-82641651D01*
X169705250Y-82634419D01*
X169726074Y-82629203D01*
X169747309Y-82626053D01*
X169768750Y-82625000D01*
X170206250Y-82625000D01*
X170227691Y-82626053D01*
X170227691Y-82626053D01*
G37*
D12*
X169987500Y-83100000D03*
D17*
X154000000Y-94500000D03*
X154000000Y-92500000D03*
X154000000Y-90500000D03*
X154000000Y-88500000D03*
D11*
G36*
X165980142Y-98951174D02*
G01*
X166003803Y-98954684D01*
X166027007Y-98960496D01*
X166049529Y-98968554D01*
X166071153Y-98978782D01*
X166091670Y-98991079D01*
X166110883Y-99005329D01*
X166128607Y-99021393D01*
X166144671Y-99039117D01*
X166158921Y-99058330D01*
X166171218Y-99078847D01*
X166181446Y-99100471D01*
X166189504Y-99122993D01*
X166195316Y-99146197D01*
X166198826Y-99169858D01*
X166200000Y-99193750D01*
X166200000Y-99681250D01*
X166198826Y-99705142D01*
X166195316Y-99728803D01*
X166189504Y-99752007D01*
X166181446Y-99774529D01*
X166171218Y-99796153D01*
X166158921Y-99816670D01*
X166144671Y-99835883D01*
X166128607Y-99853607D01*
X166110883Y-99869671D01*
X166091670Y-99883921D01*
X166071153Y-99896218D01*
X166049529Y-99906446D01*
X166027007Y-99914504D01*
X166003803Y-99920316D01*
X165980142Y-99923826D01*
X165956250Y-99925000D01*
X165043750Y-99925000D01*
X165019858Y-99923826D01*
X164996197Y-99920316D01*
X164972993Y-99914504D01*
X164950471Y-99906446D01*
X164928847Y-99896218D01*
X164908330Y-99883921D01*
X164889117Y-99869671D01*
X164871393Y-99853607D01*
X164855329Y-99835883D01*
X164841079Y-99816670D01*
X164828782Y-99796153D01*
X164818554Y-99774529D01*
X164810496Y-99752007D01*
X164804684Y-99728803D01*
X164801174Y-99705142D01*
X164800000Y-99681250D01*
X164800000Y-99193750D01*
X164801174Y-99169858D01*
X164804684Y-99146197D01*
X164810496Y-99122993D01*
X164818554Y-99100471D01*
X164828782Y-99078847D01*
X164841079Y-99058330D01*
X164855329Y-99039117D01*
X164871393Y-99021393D01*
X164889117Y-99005329D01*
X164908330Y-98991079D01*
X164928847Y-98978782D01*
X164950471Y-98968554D01*
X164972993Y-98960496D01*
X164996197Y-98954684D01*
X165019858Y-98951174D01*
X165043750Y-98950000D01*
X165956250Y-98950000D01*
X165980142Y-98951174D01*
X165980142Y-98951174D01*
G37*
D14*
X165500000Y-99437500D03*
D11*
G36*
X165980142Y-97076174D02*
G01*
X166003803Y-97079684D01*
X166027007Y-97085496D01*
X166049529Y-97093554D01*
X166071153Y-97103782D01*
X166091670Y-97116079D01*
X166110883Y-97130329D01*
X166128607Y-97146393D01*
X166144671Y-97164117D01*
X166158921Y-97183330D01*
X166171218Y-97203847D01*
X166181446Y-97225471D01*
X166189504Y-97247993D01*
X166195316Y-97271197D01*
X166198826Y-97294858D01*
X166200000Y-97318750D01*
X166200000Y-97806250D01*
X166198826Y-97830142D01*
X166195316Y-97853803D01*
X166189504Y-97877007D01*
X166181446Y-97899529D01*
X166171218Y-97921153D01*
X166158921Y-97941670D01*
X166144671Y-97960883D01*
X166128607Y-97978607D01*
X166110883Y-97994671D01*
X166091670Y-98008921D01*
X166071153Y-98021218D01*
X166049529Y-98031446D01*
X166027007Y-98039504D01*
X166003803Y-98045316D01*
X165980142Y-98048826D01*
X165956250Y-98050000D01*
X165043750Y-98050000D01*
X165019858Y-98048826D01*
X164996197Y-98045316D01*
X164972993Y-98039504D01*
X164950471Y-98031446D01*
X164928847Y-98021218D01*
X164908330Y-98008921D01*
X164889117Y-97994671D01*
X164871393Y-97978607D01*
X164855329Y-97960883D01*
X164841079Y-97941670D01*
X164828782Y-97921153D01*
X164818554Y-97899529D01*
X164810496Y-97877007D01*
X164804684Y-97853803D01*
X164801174Y-97830142D01*
X164800000Y-97806250D01*
X164800000Y-97318750D01*
X164801174Y-97294858D01*
X164804684Y-97271197D01*
X164810496Y-97247993D01*
X164818554Y-97225471D01*
X164828782Y-97203847D01*
X164841079Y-97183330D01*
X164855329Y-97164117D01*
X164871393Y-97146393D01*
X164889117Y-97130329D01*
X164908330Y-97116079D01*
X164928847Y-97103782D01*
X164950471Y-97093554D01*
X164972993Y-97085496D01*
X164996197Y-97079684D01*
X165019858Y-97076174D01*
X165043750Y-97075000D01*
X165956250Y-97075000D01*
X165980142Y-97076174D01*
X165980142Y-97076174D01*
G37*
D14*
X165500000Y-97562500D03*
D11*
G36*
X167777691Y-98851053D02*
G01*
X167798926Y-98854203D01*
X167819750Y-98859419D01*
X167839962Y-98866651D01*
X167859368Y-98875830D01*
X167877781Y-98886866D01*
X167895024Y-98899654D01*
X167910930Y-98914070D01*
X167925346Y-98929976D01*
X167938134Y-98947219D01*
X167949170Y-98965632D01*
X167958349Y-98985038D01*
X167965581Y-99005250D01*
X167970797Y-99026074D01*
X167973947Y-99047309D01*
X167975000Y-99068750D01*
X167975000Y-99506250D01*
X167973947Y-99527691D01*
X167970797Y-99548926D01*
X167965581Y-99569750D01*
X167958349Y-99589962D01*
X167949170Y-99609368D01*
X167938134Y-99627781D01*
X167925346Y-99645024D01*
X167910930Y-99660930D01*
X167895024Y-99675346D01*
X167877781Y-99688134D01*
X167859368Y-99699170D01*
X167839962Y-99708349D01*
X167819750Y-99715581D01*
X167798926Y-99720797D01*
X167777691Y-99723947D01*
X167756250Y-99725000D01*
X167243750Y-99725000D01*
X167222309Y-99723947D01*
X167201074Y-99720797D01*
X167180250Y-99715581D01*
X167160038Y-99708349D01*
X167140632Y-99699170D01*
X167122219Y-99688134D01*
X167104976Y-99675346D01*
X167089070Y-99660930D01*
X167074654Y-99645024D01*
X167061866Y-99627781D01*
X167050830Y-99609368D01*
X167041651Y-99589962D01*
X167034419Y-99569750D01*
X167029203Y-99548926D01*
X167026053Y-99527691D01*
X167025000Y-99506250D01*
X167025000Y-99068750D01*
X167026053Y-99047309D01*
X167029203Y-99026074D01*
X167034419Y-99005250D01*
X167041651Y-98985038D01*
X167050830Y-98965632D01*
X167061866Y-98947219D01*
X167074654Y-98929976D01*
X167089070Y-98914070D01*
X167104976Y-98899654D01*
X167122219Y-98886866D01*
X167140632Y-98875830D01*
X167160038Y-98866651D01*
X167180250Y-98859419D01*
X167201074Y-98854203D01*
X167222309Y-98851053D01*
X167243750Y-98850000D01*
X167756250Y-98850000D01*
X167777691Y-98851053D01*
X167777691Y-98851053D01*
G37*
D12*
X167500000Y-99287500D03*
D11*
G36*
X167777691Y-97276053D02*
G01*
X167798926Y-97279203D01*
X167819750Y-97284419D01*
X167839962Y-97291651D01*
X167859368Y-97300830D01*
X167877781Y-97311866D01*
X167895024Y-97324654D01*
X167910930Y-97339070D01*
X167925346Y-97354976D01*
X167938134Y-97372219D01*
X167949170Y-97390632D01*
X167958349Y-97410038D01*
X167965581Y-97430250D01*
X167970797Y-97451074D01*
X167973947Y-97472309D01*
X167975000Y-97493750D01*
X167975000Y-97931250D01*
X167973947Y-97952691D01*
X167970797Y-97973926D01*
X167965581Y-97994750D01*
X167958349Y-98014962D01*
X167949170Y-98034368D01*
X167938134Y-98052781D01*
X167925346Y-98070024D01*
X167910930Y-98085930D01*
X167895024Y-98100346D01*
X167877781Y-98113134D01*
X167859368Y-98124170D01*
X167839962Y-98133349D01*
X167819750Y-98140581D01*
X167798926Y-98145797D01*
X167777691Y-98148947D01*
X167756250Y-98150000D01*
X167243750Y-98150000D01*
X167222309Y-98148947D01*
X167201074Y-98145797D01*
X167180250Y-98140581D01*
X167160038Y-98133349D01*
X167140632Y-98124170D01*
X167122219Y-98113134D01*
X167104976Y-98100346D01*
X167089070Y-98085930D01*
X167074654Y-98070024D01*
X167061866Y-98052781D01*
X167050830Y-98034368D01*
X167041651Y-98014962D01*
X167034419Y-97994750D01*
X167029203Y-97973926D01*
X167026053Y-97952691D01*
X167025000Y-97931250D01*
X167025000Y-97493750D01*
X167026053Y-97472309D01*
X167029203Y-97451074D01*
X167034419Y-97430250D01*
X167041651Y-97410038D01*
X167050830Y-97390632D01*
X167061866Y-97372219D01*
X167074654Y-97354976D01*
X167089070Y-97339070D01*
X167104976Y-97324654D01*
X167122219Y-97311866D01*
X167140632Y-97300830D01*
X167160038Y-97291651D01*
X167180250Y-97284419D01*
X167201074Y-97279203D01*
X167222309Y-97276053D01*
X167243750Y-97275000D01*
X167756250Y-97275000D01*
X167777691Y-97276053D01*
X167777691Y-97276053D01*
G37*
D12*
X167500000Y-97712500D03*
D11*
G36*
X163777691Y-98851053D02*
G01*
X163798926Y-98854203D01*
X163819750Y-98859419D01*
X163839962Y-98866651D01*
X163859368Y-98875830D01*
X163877781Y-98886866D01*
X163895024Y-98899654D01*
X163910930Y-98914070D01*
X163925346Y-98929976D01*
X163938134Y-98947219D01*
X163949170Y-98965632D01*
X163958349Y-98985038D01*
X163965581Y-99005250D01*
X163970797Y-99026074D01*
X163973947Y-99047309D01*
X163975000Y-99068750D01*
X163975000Y-99506250D01*
X163973947Y-99527691D01*
X163970797Y-99548926D01*
X163965581Y-99569750D01*
X163958349Y-99589962D01*
X163949170Y-99609368D01*
X163938134Y-99627781D01*
X163925346Y-99645024D01*
X163910930Y-99660930D01*
X163895024Y-99675346D01*
X163877781Y-99688134D01*
X163859368Y-99699170D01*
X163839962Y-99708349D01*
X163819750Y-99715581D01*
X163798926Y-99720797D01*
X163777691Y-99723947D01*
X163756250Y-99725000D01*
X163243750Y-99725000D01*
X163222309Y-99723947D01*
X163201074Y-99720797D01*
X163180250Y-99715581D01*
X163160038Y-99708349D01*
X163140632Y-99699170D01*
X163122219Y-99688134D01*
X163104976Y-99675346D01*
X163089070Y-99660930D01*
X163074654Y-99645024D01*
X163061866Y-99627781D01*
X163050830Y-99609368D01*
X163041651Y-99589962D01*
X163034419Y-99569750D01*
X163029203Y-99548926D01*
X163026053Y-99527691D01*
X163025000Y-99506250D01*
X163025000Y-99068750D01*
X163026053Y-99047309D01*
X163029203Y-99026074D01*
X163034419Y-99005250D01*
X163041651Y-98985038D01*
X163050830Y-98965632D01*
X163061866Y-98947219D01*
X163074654Y-98929976D01*
X163089070Y-98914070D01*
X163104976Y-98899654D01*
X163122219Y-98886866D01*
X163140632Y-98875830D01*
X163160038Y-98866651D01*
X163180250Y-98859419D01*
X163201074Y-98854203D01*
X163222309Y-98851053D01*
X163243750Y-98850000D01*
X163756250Y-98850000D01*
X163777691Y-98851053D01*
X163777691Y-98851053D01*
G37*
D12*
X163500000Y-99287500D03*
D11*
G36*
X163777691Y-97276053D02*
G01*
X163798926Y-97279203D01*
X163819750Y-97284419D01*
X163839962Y-97291651D01*
X163859368Y-97300830D01*
X163877781Y-97311866D01*
X163895024Y-97324654D01*
X163910930Y-97339070D01*
X163925346Y-97354976D01*
X163938134Y-97372219D01*
X163949170Y-97390632D01*
X163958349Y-97410038D01*
X163965581Y-97430250D01*
X163970797Y-97451074D01*
X163973947Y-97472309D01*
X163975000Y-97493750D01*
X163975000Y-97931250D01*
X163973947Y-97952691D01*
X163970797Y-97973926D01*
X163965581Y-97994750D01*
X163958349Y-98014962D01*
X163949170Y-98034368D01*
X163938134Y-98052781D01*
X163925346Y-98070024D01*
X163910930Y-98085930D01*
X163895024Y-98100346D01*
X163877781Y-98113134D01*
X163859368Y-98124170D01*
X163839962Y-98133349D01*
X163819750Y-98140581D01*
X163798926Y-98145797D01*
X163777691Y-98148947D01*
X163756250Y-98150000D01*
X163243750Y-98150000D01*
X163222309Y-98148947D01*
X163201074Y-98145797D01*
X163180250Y-98140581D01*
X163160038Y-98133349D01*
X163140632Y-98124170D01*
X163122219Y-98113134D01*
X163104976Y-98100346D01*
X163089070Y-98085930D01*
X163074654Y-98070024D01*
X163061866Y-98052781D01*
X163050830Y-98034368D01*
X163041651Y-98014962D01*
X163034419Y-97994750D01*
X163029203Y-97973926D01*
X163026053Y-97952691D01*
X163025000Y-97931250D01*
X163025000Y-97493750D01*
X163026053Y-97472309D01*
X163029203Y-97451074D01*
X163034419Y-97430250D01*
X163041651Y-97410038D01*
X163050830Y-97390632D01*
X163061866Y-97372219D01*
X163074654Y-97354976D01*
X163089070Y-97339070D01*
X163104976Y-97324654D01*
X163122219Y-97311866D01*
X163140632Y-97300830D01*
X163160038Y-97291651D01*
X163180250Y-97284419D01*
X163201074Y-97279203D01*
X163222309Y-97276053D01*
X163243750Y-97275000D01*
X163756250Y-97275000D01*
X163777691Y-97276053D01*
X163777691Y-97276053D01*
G37*
D12*
X163500000Y-97712500D03*
D11*
G36*
X169980142Y-98951174D02*
G01*
X170003803Y-98954684D01*
X170027007Y-98960496D01*
X170049529Y-98968554D01*
X170071153Y-98978782D01*
X170091670Y-98991079D01*
X170110883Y-99005329D01*
X170128607Y-99021393D01*
X170144671Y-99039117D01*
X170158921Y-99058330D01*
X170171218Y-99078847D01*
X170181446Y-99100471D01*
X170189504Y-99122993D01*
X170195316Y-99146197D01*
X170198826Y-99169858D01*
X170200000Y-99193750D01*
X170200000Y-99681250D01*
X170198826Y-99705142D01*
X170195316Y-99728803D01*
X170189504Y-99752007D01*
X170181446Y-99774529D01*
X170171218Y-99796153D01*
X170158921Y-99816670D01*
X170144671Y-99835883D01*
X170128607Y-99853607D01*
X170110883Y-99869671D01*
X170091670Y-99883921D01*
X170071153Y-99896218D01*
X170049529Y-99906446D01*
X170027007Y-99914504D01*
X170003803Y-99920316D01*
X169980142Y-99923826D01*
X169956250Y-99925000D01*
X169043750Y-99925000D01*
X169019858Y-99923826D01*
X168996197Y-99920316D01*
X168972993Y-99914504D01*
X168950471Y-99906446D01*
X168928847Y-99896218D01*
X168908330Y-99883921D01*
X168889117Y-99869671D01*
X168871393Y-99853607D01*
X168855329Y-99835883D01*
X168841079Y-99816670D01*
X168828782Y-99796153D01*
X168818554Y-99774529D01*
X168810496Y-99752007D01*
X168804684Y-99728803D01*
X168801174Y-99705142D01*
X168800000Y-99681250D01*
X168800000Y-99193750D01*
X168801174Y-99169858D01*
X168804684Y-99146197D01*
X168810496Y-99122993D01*
X168818554Y-99100471D01*
X168828782Y-99078847D01*
X168841079Y-99058330D01*
X168855329Y-99039117D01*
X168871393Y-99021393D01*
X168889117Y-99005329D01*
X168908330Y-98991079D01*
X168928847Y-98978782D01*
X168950471Y-98968554D01*
X168972993Y-98960496D01*
X168996197Y-98954684D01*
X169019858Y-98951174D01*
X169043750Y-98950000D01*
X169956250Y-98950000D01*
X169980142Y-98951174D01*
X169980142Y-98951174D01*
G37*
D14*
X169500000Y-99437500D03*
D11*
G36*
X169980142Y-97076174D02*
G01*
X170003803Y-97079684D01*
X170027007Y-97085496D01*
X170049529Y-97093554D01*
X170071153Y-97103782D01*
X170091670Y-97116079D01*
X170110883Y-97130329D01*
X170128607Y-97146393D01*
X170144671Y-97164117D01*
X170158921Y-97183330D01*
X170171218Y-97203847D01*
X170181446Y-97225471D01*
X170189504Y-97247993D01*
X170195316Y-97271197D01*
X170198826Y-97294858D01*
X170200000Y-97318750D01*
X170200000Y-97806250D01*
X170198826Y-97830142D01*
X170195316Y-97853803D01*
X170189504Y-97877007D01*
X170181446Y-97899529D01*
X170171218Y-97921153D01*
X170158921Y-97941670D01*
X170144671Y-97960883D01*
X170128607Y-97978607D01*
X170110883Y-97994671D01*
X170091670Y-98008921D01*
X170071153Y-98021218D01*
X170049529Y-98031446D01*
X170027007Y-98039504D01*
X170003803Y-98045316D01*
X169980142Y-98048826D01*
X169956250Y-98050000D01*
X169043750Y-98050000D01*
X169019858Y-98048826D01*
X168996197Y-98045316D01*
X168972993Y-98039504D01*
X168950471Y-98031446D01*
X168928847Y-98021218D01*
X168908330Y-98008921D01*
X168889117Y-97994671D01*
X168871393Y-97978607D01*
X168855329Y-97960883D01*
X168841079Y-97941670D01*
X168828782Y-97921153D01*
X168818554Y-97899529D01*
X168810496Y-97877007D01*
X168804684Y-97853803D01*
X168801174Y-97830142D01*
X168800000Y-97806250D01*
X168800000Y-97318750D01*
X168801174Y-97294858D01*
X168804684Y-97271197D01*
X168810496Y-97247993D01*
X168818554Y-97225471D01*
X168828782Y-97203847D01*
X168841079Y-97183330D01*
X168855329Y-97164117D01*
X168871393Y-97146393D01*
X168889117Y-97130329D01*
X168908330Y-97116079D01*
X168928847Y-97103782D01*
X168950471Y-97093554D01*
X168972993Y-97085496D01*
X168996197Y-97079684D01*
X169019858Y-97076174D01*
X169043750Y-97075000D01*
X169956250Y-97075000D01*
X169980142Y-97076174D01*
X169980142Y-97076174D01*
G37*
D14*
X169500000Y-97562500D03*
D11*
G36*
X161980142Y-98951174D02*
G01*
X162003803Y-98954684D01*
X162027007Y-98960496D01*
X162049529Y-98968554D01*
X162071153Y-98978782D01*
X162091670Y-98991079D01*
X162110883Y-99005329D01*
X162128607Y-99021393D01*
X162144671Y-99039117D01*
X162158921Y-99058330D01*
X162171218Y-99078847D01*
X162181446Y-99100471D01*
X162189504Y-99122993D01*
X162195316Y-99146197D01*
X162198826Y-99169858D01*
X162200000Y-99193750D01*
X162200000Y-99681250D01*
X162198826Y-99705142D01*
X162195316Y-99728803D01*
X162189504Y-99752007D01*
X162181446Y-99774529D01*
X162171218Y-99796153D01*
X162158921Y-99816670D01*
X162144671Y-99835883D01*
X162128607Y-99853607D01*
X162110883Y-99869671D01*
X162091670Y-99883921D01*
X162071153Y-99896218D01*
X162049529Y-99906446D01*
X162027007Y-99914504D01*
X162003803Y-99920316D01*
X161980142Y-99923826D01*
X161956250Y-99925000D01*
X161043750Y-99925000D01*
X161019858Y-99923826D01*
X160996197Y-99920316D01*
X160972993Y-99914504D01*
X160950471Y-99906446D01*
X160928847Y-99896218D01*
X160908330Y-99883921D01*
X160889117Y-99869671D01*
X160871393Y-99853607D01*
X160855329Y-99835883D01*
X160841079Y-99816670D01*
X160828782Y-99796153D01*
X160818554Y-99774529D01*
X160810496Y-99752007D01*
X160804684Y-99728803D01*
X160801174Y-99705142D01*
X160800000Y-99681250D01*
X160800000Y-99193750D01*
X160801174Y-99169858D01*
X160804684Y-99146197D01*
X160810496Y-99122993D01*
X160818554Y-99100471D01*
X160828782Y-99078847D01*
X160841079Y-99058330D01*
X160855329Y-99039117D01*
X160871393Y-99021393D01*
X160889117Y-99005329D01*
X160908330Y-98991079D01*
X160928847Y-98978782D01*
X160950471Y-98968554D01*
X160972993Y-98960496D01*
X160996197Y-98954684D01*
X161019858Y-98951174D01*
X161043750Y-98950000D01*
X161956250Y-98950000D01*
X161980142Y-98951174D01*
X161980142Y-98951174D01*
G37*
D14*
X161500000Y-99437500D03*
D11*
G36*
X161980142Y-97076174D02*
G01*
X162003803Y-97079684D01*
X162027007Y-97085496D01*
X162049529Y-97093554D01*
X162071153Y-97103782D01*
X162091670Y-97116079D01*
X162110883Y-97130329D01*
X162128607Y-97146393D01*
X162144671Y-97164117D01*
X162158921Y-97183330D01*
X162171218Y-97203847D01*
X162181446Y-97225471D01*
X162189504Y-97247993D01*
X162195316Y-97271197D01*
X162198826Y-97294858D01*
X162200000Y-97318750D01*
X162200000Y-97806250D01*
X162198826Y-97830142D01*
X162195316Y-97853803D01*
X162189504Y-97877007D01*
X162181446Y-97899529D01*
X162171218Y-97921153D01*
X162158921Y-97941670D01*
X162144671Y-97960883D01*
X162128607Y-97978607D01*
X162110883Y-97994671D01*
X162091670Y-98008921D01*
X162071153Y-98021218D01*
X162049529Y-98031446D01*
X162027007Y-98039504D01*
X162003803Y-98045316D01*
X161980142Y-98048826D01*
X161956250Y-98050000D01*
X161043750Y-98050000D01*
X161019858Y-98048826D01*
X160996197Y-98045316D01*
X160972993Y-98039504D01*
X160950471Y-98031446D01*
X160928847Y-98021218D01*
X160908330Y-98008921D01*
X160889117Y-97994671D01*
X160871393Y-97978607D01*
X160855329Y-97960883D01*
X160841079Y-97941670D01*
X160828782Y-97921153D01*
X160818554Y-97899529D01*
X160810496Y-97877007D01*
X160804684Y-97853803D01*
X160801174Y-97830142D01*
X160800000Y-97806250D01*
X160800000Y-97318750D01*
X160801174Y-97294858D01*
X160804684Y-97271197D01*
X160810496Y-97247993D01*
X160818554Y-97225471D01*
X160828782Y-97203847D01*
X160841079Y-97183330D01*
X160855329Y-97164117D01*
X160871393Y-97146393D01*
X160889117Y-97130329D01*
X160908330Y-97116079D01*
X160928847Y-97103782D01*
X160950471Y-97093554D01*
X160972993Y-97085496D01*
X160996197Y-97079684D01*
X161019858Y-97076174D01*
X161043750Y-97075000D01*
X161956250Y-97075000D01*
X161980142Y-97076174D01*
X161980142Y-97076174D01*
G37*
D14*
X161500000Y-97562500D03*
M02*
