G04 #@! TF.GenerationSoftware,KiCad,Pcbnew,(5.1.2)-1*
G04 #@! TF.CreationDate,2025-09-14T13:11:52+09:00*
G04 #@! TF.ProjectId,ots,6f74732e-6b69-4636-9164-5f7063625858,v1.1*
G04 #@! TF.SameCoordinates,Original*
G04 #@! TF.FileFunction,Legend,Top*
G04 #@! TF.FilePolarity,Positive*
%FSLAX46Y46*%
G04 Gerber Fmt 4.6, Leading zero omitted, Abs format (unit mm)*
G04 Created by KiCad (PCBNEW (5.1.2)-1) date 2025-09-14 13:11:52*
%MOMM*%
%LPD*%
G04 APERTURE LIST*
%ADD10C,0.120000*%
%ADD11C,0.150000*%
%ADD12C,3.302000*%
%ADD13R,1.162000X0.752000*%
%ADD14C,0.100000*%
%ADD15C,0.977000*%
%ADD16R,1.002000X0.902000*%
%ADD17C,1.077000*%
%ADD18R,0.490000X0.740000*%
%ADD19R,0.490000X0.840000*%
%ADD20C,1.102000*%
%ADD21O,1.902000X1.626000*%
G04 APERTURE END LIST*
D10*
X166933333Y-81201904D02*
X167200000Y-82001904D01*
X167466666Y-81201904D01*
X167409523Y-82560000D02*
X167333333Y-82521904D01*
X167219047Y-82521904D01*
X167104761Y-82560000D01*
X167028571Y-82636190D01*
X166990476Y-82712380D01*
X166952380Y-82864761D01*
X166952380Y-82979047D01*
X166990476Y-83131428D01*
X167028571Y-83207619D01*
X167104761Y-83283809D01*
X167219047Y-83321904D01*
X167295238Y-83321904D01*
X167409523Y-83283809D01*
X167447619Y-83245714D01*
X167447619Y-82979047D01*
X167295238Y-82979047D01*
X165333333Y-85538095D02*
X165485714Y-85423809D01*
X165638095Y-85538095D01*
X165866666Y-86033333D02*
X166247619Y-86033333D01*
X165790476Y-86261904D02*
X166057142Y-85461904D01*
X166323809Y-86261904D01*
X166590476Y-86261904D02*
X166590476Y-85461904D01*
X166780952Y-85461904D01*
X166895238Y-85500000D01*
X166971428Y-85576190D01*
X167009523Y-85652380D01*
X167047619Y-85804761D01*
X167047619Y-85919047D01*
X167009523Y-86071428D01*
X166971428Y-86147619D01*
X166895238Y-86223809D01*
X166780952Y-86261904D01*
X166590476Y-86261904D01*
X167390476Y-86261904D02*
X167390476Y-85461904D01*
X167580952Y-85461904D01*
X167695238Y-85500000D01*
X167771428Y-85576190D01*
X167809523Y-85652380D01*
X167847619Y-85804761D01*
X167847619Y-85919047D01*
X167809523Y-86071428D01*
X167771428Y-86147619D01*
X167695238Y-86223809D01*
X167580952Y-86261904D01*
X167390476Y-86261904D01*
X168647619Y-86261904D02*
X168380952Y-85880952D01*
X168190476Y-86261904D02*
X168190476Y-85461904D01*
X168495238Y-85461904D01*
X168571428Y-85500000D01*
X168609523Y-85538095D01*
X168647619Y-85614285D01*
X168647619Y-85728571D01*
X168609523Y-85804761D01*
X168571428Y-85842857D01*
X168495238Y-85880952D01*
X168190476Y-85880952D01*
X169561904Y-86223809D02*
X169676190Y-86261904D01*
X169866666Y-86261904D01*
X169942857Y-86223809D01*
X169980952Y-86185714D01*
X170019047Y-86109523D01*
X170019047Y-86033333D01*
X169980952Y-85957142D01*
X169942857Y-85919047D01*
X169866666Y-85880952D01*
X169714285Y-85842857D01*
X169638095Y-85804761D01*
X169600000Y-85766666D01*
X169561904Y-85690476D01*
X169561904Y-85614285D01*
X169600000Y-85538095D01*
X169638095Y-85500000D01*
X169714285Y-85461904D01*
X169904761Y-85461904D01*
X170019047Y-85500000D01*
X170361904Y-85842857D02*
X170628571Y-85842857D01*
X170742857Y-86261904D02*
X170361904Y-86261904D01*
X170361904Y-85461904D01*
X170742857Y-85461904D01*
X171466666Y-86261904D02*
X171085714Y-86261904D01*
X171085714Y-85461904D01*
D11*
X162071428Y-96071428D02*
X162833333Y-96071428D01*
X162452380Y-96452380D02*
X162452380Y-95690476D01*
X163500000Y-95976190D02*
X163500000Y-96452380D01*
X163166666Y-95452380D02*
X163500000Y-95976190D01*
X163833333Y-95452380D01*
X165690476Y-95785714D02*
X164928571Y-96071428D01*
X165690476Y-96357142D01*
X166166666Y-96071428D02*
X166928571Y-96071428D01*
X170071428Y-94476190D02*
X170071428Y-93714285D01*
X170452380Y-94095238D02*
X169690476Y-94095238D01*
X169452380Y-93333333D02*
X170452380Y-92666666D01*
X169452380Y-92666666D02*
X170452380Y-93333333D01*
X169785714Y-90761904D02*
X170071428Y-91523809D01*
X170357142Y-90761904D01*
X170071428Y-90285714D02*
X170071428Y-89523809D01*
D10*
X160100000Y-80590000D02*
X157650000Y-80590000D01*
X158300000Y-83810000D02*
X160100000Y-83810000D01*
X158962779Y-94090000D02*
X158637221Y-94090000D01*
X158962779Y-95110000D02*
X158637221Y-95110000D01*
X158962779Y-91990000D02*
X158637221Y-91990000D01*
X158962779Y-93010000D02*
X158637221Y-93010000D01*
X154240000Y-96920000D02*
X155700000Y-96920000D01*
X154240000Y-100080000D02*
X156400000Y-100080000D01*
X154240000Y-100080000D02*
X154240000Y-99150000D01*
X154240000Y-96920000D02*
X154240000Y-97850000D01*
X157840000Y-96920000D02*
X159300000Y-96920000D01*
X157840000Y-100080000D02*
X160000000Y-100080000D01*
X157840000Y-100080000D02*
X157840000Y-99150000D01*
X157840000Y-96920000D02*
X157840000Y-97850000D01*
X161990000Y-82037221D02*
X161990000Y-82362779D01*
X163010000Y-82037221D02*
X163010000Y-82362779D01*
X159362779Y-84690000D02*
X159037221Y-84690000D01*
X159362779Y-85710000D02*
X159037221Y-85710000D01*
X154990000Y-81941422D02*
X154990000Y-82458578D01*
X156410000Y-81941422D02*
X156410000Y-82458578D01*
X154700000Y-85500000D02*
G75*
G03X154700000Y-85500000I-700000J0D01*
G01*
X165562779Y-82590000D02*
X165237221Y-82590000D01*
X165562779Y-83610000D02*
X165237221Y-83610000D01*
X165237221Y-81810000D02*
X165562779Y-81810000D01*
X165237221Y-80790000D02*
X165562779Y-80790000D01*
X169362779Y-80790000D02*
X169037221Y-80790000D01*
X169362779Y-81810000D02*
X169037221Y-81810000D01*
X169362779Y-82590000D02*
X169037221Y-82590000D01*
X169362779Y-83610000D02*
X169037221Y-83610000D01*
X164790000Y-98241422D02*
X164790000Y-98758578D01*
X166210000Y-98241422D02*
X166210000Y-98758578D01*
X166990000Y-98337221D02*
X166990000Y-98662779D01*
X168010000Y-98337221D02*
X168010000Y-98662779D01*
X162990000Y-98337221D02*
X162990000Y-98662779D01*
X164010000Y-98337221D02*
X164010000Y-98662779D01*
X168790000Y-98241422D02*
X168790000Y-98758578D01*
X170210000Y-98241422D02*
X170210000Y-98758578D01*
X160790000Y-98241422D02*
X160790000Y-98758578D01*
X162210000Y-98241422D02*
X162210000Y-98758578D01*
D11*
X158438095Y-79252380D02*
X158438095Y-80061904D01*
X158485714Y-80157142D01*
X158533333Y-80204761D01*
X158628571Y-80252380D01*
X158819047Y-80252380D01*
X158914285Y-80204761D01*
X158961904Y-80157142D01*
X159009523Y-80061904D01*
X159009523Y-79252380D01*
X159438095Y-79347619D02*
X159485714Y-79300000D01*
X159580952Y-79252380D01*
X159819047Y-79252380D01*
X159914285Y-79300000D01*
X159961904Y-79347619D01*
X160009523Y-79442857D01*
X160009523Y-79538095D01*
X159961904Y-79680952D01*
X159390476Y-80252380D01*
X160009523Y-80252380D01*
X158633333Y-96482380D02*
X158300000Y-96006190D01*
X158061904Y-96482380D02*
X158061904Y-95482380D01*
X158442857Y-95482380D01*
X158538095Y-95530000D01*
X158585714Y-95577619D01*
X158633333Y-95672857D01*
X158633333Y-95815714D01*
X158585714Y-95910952D01*
X158538095Y-95958571D01*
X158442857Y-96006190D01*
X158061904Y-96006190D01*
X159490476Y-95482380D02*
X159300000Y-95482380D01*
X159204761Y-95530000D01*
X159157142Y-95577619D01*
X159061904Y-95720476D01*
X159014285Y-95910952D01*
X159014285Y-96291904D01*
X159061904Y-96387142D01*
X159109523Y-96434761D01*
X159204761Y-96482380D01*
X159395238Y-96482380D01*
X159490476Y-96434761D01*
X159538095Y-96387142D01*
X159585714Y-96291904D01*
X159585714Y-96053809D01*
X159538095Y-95958571D01*
X159490476Y-95910952D01*
X159395238Y-95863333D01*
X159204761Y-95863333D01*
X159109523Y-95910952D01*
X159061904Y-95958571D01*
X159014285Y-96053809D01*
X158633333Y-91552380D02*
X158300000Y-91076190D01*
X158061904Y-91552380D02*
X158061904Y-90552380D01*
X158442857Y-90552380D01*
X158538095Y-90600000D01*
X158585714Y-90647619D01*
X158633333Y-90742857D01*
X158633333Y-90885714D01*
X158585714Y-90980952D01*
X158538095Y-91028571D01*
X158442857Y-91076190D01*
X158061904Y-91076190D01*
X159538095Y-90552380D02*
X159061904Y-90552380D01*
X159014285Y-91028571D01*
X159061904Y-90980952D01*
X159157142Y-90933333D01*
X159395238Y-90933333D01*
X159490476Y-90980952D01*
X159538095Y-91028571D01*
X159585714Y-91123809D01*
X159585714Y-91361904D01*
X159538095Y-91457142D01*
X159490476Y-91504761D01*
X159395238Y-91552380D01*
X159157142Y-91552380D01*
X159061904Y-91504761D01*
X159014285Y-91457142D01*
X155104761Y-101547619D02*
X155009523Y-101500000D01*
X154914285Y-101404761D01*
X154771428Y-101261904D01*
X154676190Y-101214285D01*
X154580952Y-101214285D01*
X154628571Y-101452380D02*
X154533333Y-101404761D01*
X154438095Y-101309523D01*
X154390476Y-101119047D01*
X154390476Y-100785714D01*
X154438095Y-100595238D01*
X154533333Y-100500000D01*
X154628571Y-100452380D01*
X154819047Y-100452380D01*
X154914285Y-100500000D01*
X155009523Y-100595238D01*
X155057142Y-100785714D01*
X155057142Y-101119047D01*
X155009523Y-101309523D01*
X154914285Y-101404761D01*
X154819047Y-101452380D01*
X154628571Y-101452380D01*
X155438095Y-100547619D02*
X155485714Y-100500000D01*
X155580952Y-100452380D01*
X155819047Y-100452380D01*
X155914285Y-100500000D01*
X155961904Y-100547619D01*
X156009523Y-100642857D01*
X156009523Y-100738095D01*
X155961904Y-100880952D01*
X155390476Y-101452380D01*
X156009523Y-101452380D01*
X158504761Y-101547619D02*
X158409523Y-101500000D01*
X158314285Y-101404761D01*
X158171428Y-101261904D01*
X158076190Y-101214285D01*
X157980952Y-101214285D01*
X158028571Y-101452380D02*
X157933333Y-101404761D01*
X157838095Y-101309523D01*
X157790476Y-101119047D01*
X157790476Y-100785714D01*
X157838095Y-100595238D01*
X157933333Y-100500000D01*
X158028571Y-100452380D01*
X158219047Y-100452380D01*
X158314285Y-100500000D01*
X158409523Y-100595238D01*
X158457142Y-100785714D01*
X158457142Y-101119047D01*
X158409523Y-101309523D01*
X158314285Y-101404761D01*
X158219047Y-101452380D01*
X158028571Y-101452380D01*
X159409523Y-101452380D02*
X158838095Y-101452380D01*
X159123809Y-101452380D02*
X159123809Y-100452380D01*
X159028571Y-100595238D01*
X158933333Y-100690476D01*
X158838095Y-100738095D01*
X162233333Y-80357142D02*
X162185714Y-80404761D01*
X162042857Y-80452380D01*
X161947619Y-80452380D01*
X161804761Y-80404761D01*
X161709523Y-80309523D01*
X161661904Y-80214285D01*
X161614285Y-80023809D01*
X161614285Y-79880952D01*
X161661904Y-79690476D01*
X161709523Y-79595238D01*
X161804761Y-79500000D01*
X161947619Y-79452380D01*
X162042857Y-79452380D01*
X162185714Y-79500000D01*
X162233333Y-79547619D01*
X162804761Y-79880952D02*
X162709523Y-79833333D01*
X162661904Y-79785714D01*
X162614285Y-79690476D01*
X162614285Y-79642857D01*
X162661904Y-79547619D01*
X162709523Y-79500000D01*
X162804761Y-79452380D01*
X162995238Y-79452380D01*
X163090476Y-79500000D01*
X163138095Y-79547619D01*
X163185714Y-79642857D01*
X163185714Y-79690476D01*
X163138095Y-79785714D01*
X163090476Y-79833333D01*
X162995238Y-79880952D01*
X162804761Y-79880952D01*
X162709523Y-79928571D01*
X162661904Y-79976190D01*
X162614285Y-80071428D01*
X162614285Y-80261904D01*
X162661904Y-80357142D01*
X162709523Y-80404761D01*
X162804761Y-80452380D01*
X162995238Y-80452380D01*
X163090476Y-80404761D01*
X163138095Y-80357142D01*
X163185714Y-80261904D01*
X163185714Y-80071428D01*
X163138095Y-79976190D01*
X163090476Y-79928571D01*
X162995238Y-79880952D01*
X159033333Y-86987142D02*
X158985714Y-87034761D01*
X158842857Y-87082380D01*
X158747619Y-87082380D01*
X158604761Y-87034761D01*
X158509523Y-86939523D01*
X158461904Y-86844285D01*
X158414285Y-86653809D01*
X158414285Y-86510952D01*
X158461904Y-86320476D01*
X158509523Y-86225238D01*
X158604761Y-86130000D01*
X158747619Y-86082380D01*
X158842857Y-86082380D01*
X158985714Y-86130000D01*
X159033333Y-86177619D01*
X159366666Y-86082380D02*
X160033333Y-86082380D01*
X159604761Y-87082380D01*
X155433333Y-80257142D02*
X155385714Y-80304761D01*
X155242857Y-80352380D01*
X155147619Y-80352380D01*
X155004761Y-80304761D01*
X154909523Y-80209523D01*
X154861904Y-80114285D01*
X154814285Y-79923809D01*
X154814285Y-79780952D01*
X154861904Y-79590476D01*
X154909523Y-79495238D01*
X155004761Y-79400000D01*
X155147619Y-79352380D01*
X155242857Y-79352380D01*
X155385714Y-79400000D01*
X155433333Y-79447619D01*
X156290476Y-79352380D02*
X156100000Y-79352380D01*
X156004761Y-79400000D01*
X155957142Y-79447619D01*
X155861904Y-79590476D01*
X155814285Y-79780952D01*
X155814285Y-80161904D01*
X155861904Y-80257142D01*
X155909523Y-80304761D01*
X156004761Y-80352380D01*
X156195238Y-80352380D01*
X156290476Y-80304761D01*
X156338095Y-80257142D01*
X156385714Y-80161904D01*
X156385714Y-79923809D01*
X156338095Y-79828571D01*
X156290476Y-79780952D01*
X156195238Y-79733333D01*
X156004761Y-79733333D01*
X155909523Y-79780952D01*
X155861904Y-79828571D01*
X155814285Y-79923809D01*
X166738095Y-90952380D02*
X166738095Y-91761904D01*
X166785714Y-91857142D01*
X166833333Y-91904761D01*
X166928571Y-91952380D01*
X167119047Y-91952380D01*
X167214285Y-91904761D01*
X167261904Y-91857142D01*
X167309523Y-91761904D01*
X167309523Y-90952380D01*
X168309523Y-91952380D02*
X167738095Y-91952380D01*
X168023809Y-91952380D02*
X168023809Y-90952380D01*
X167928571Y-91095238D01*
X167833333Y-91190476D01*
X167738095Y-91238095D01*
X162800000Y-94157142D02*
X162847619Y-94204761D01*
X162800000Y-94252380D01*
X162752380Y-94204761D01*
X162800000Y-94157142D01*
X162800000Y-94252380D01*
X150238095Y-84952380D02*
X150809523Y-84952380D01*
X150523809Y-85952380D02*
X150523809Y-84952380D01*
X151142857Y-85952380D02*
X151142857Y-84952380D01*
X151523809Y-84952380D01*
X151619047Y-85000000D01*
X151666666Y-85047619D01*
X151714285Y-85142857D01*
X151714285Y-85285714D01*
X151666666Y-85380952D01*
X151619047Y-85428571D01*
X151523809Y-85476190D01*
X151142857Y-85476190D01*
X152666666Y-85952380D02*
X152095238Y-85952380D01*
X152380952Y-85952380D02*
X152380952Y-84952380D01*
X152285714Y-85095238D01*
X152190476Y-85190476D01*
X152095238Y-85238095D01*
X165233333Y-84982380D02*
X164900000Y-84506190D01*
X164661904Y-84982380D02*
X164661904Y-83982380D01*
X165042857Y-83982380D01*
X165138095Y-84030000D01*
X165185714Y-84077619D01*
X165233333Y-84172857D01*
X165233333Y-84315714D01*
X165185714Y-84410952D01*
X165138095Y-84458571D01*
X165042857Y-84506190D01*
X164661904Y-84506190D01*
X166090476Y-84315714D02*
X166090476Y-84982380D01*
X165852380Y-83934761D02*
X165614285Y-84649047D01*
X166233333Y-84649047D01*
X165233333Y-80322380D02*
X164900000Y-79846190D01*
X164661904Y-80322380D02*
X164661904Y-79322380D01*
X165042857Y-79322380D01*
X165138095Y-79370000D01*
X165185714Y-79417619D01*
X165233333Y-79512857D01*
X165233333Y-79655714D01*
X165185714Y-79750952D01*
X165138095Y-79798571D01*
X165042857Y-79846190D01*
X164661904Y-79846190D01*
X165566666Y-79322380D02*
X166185714Y-79322380D01*
X165852380Y-79703333D01*
X165995238Y-79703333D01*
X166090476Y-79750952D01*
X166138095Y-79798571D01*
X166185714Y-79893809D01*
X166185714Y-80131904D01*
X166138095Y-80227142D01*
X166090476Y-80274761D01*
X165995238Y-80322380D01*
X165709523Y-80322380D01*
X165614285Y-80274761D01*
X165566666Y-80227142D01*
X169033333Y-80452380D02*
X168700000Y-79976190D01*
X168461904Y-80452380D02*
X168461904Y-79452380D01*
X168842857Y-79452380D01*
X168938095Y-79500000D01*
X168985714Y-79547619D01*
X169033333Y-79642857D01*
X169033333Y-79785714D01*
X168985714Y-79880952D01*
X168938095Y-79928571D01*
X168842857Y-79976190D01*
X168461904Y-79976190D01*
X169414285Y-79547619D02*
X169461904Y-79500000D01*
X169557142Y-79452380D01*
X169795238Y-79452380D01*
X169890476Y-79500000D01*
X169938095Y-79547619D01*
X169985714Y-79642857D01*
X169985714Y-79738095D01*
X169938095Y-79880952D01*
X169366666Y-80452380D01*
X169985714Y-80452380D01*
X169133333Y-84952380D02*
X168800000Y-84476190D01*
X168561904Y-84952380D02*
X168561904Y-83952380D01*
X168942857Y-83952380D01*
X169038095Y-84000000D01*
X169085714Y-84047619D01*
X169133333Y-84142857D01*
X169133333Y-84285714D01*
X169085714Y-84380952D01*
X169038095Y-84428571D01*
X168942857Y-84476190D01*
X168561904Y-84476190D01*
X170085714Y-84952380D02*
X169514285Y-84952380D01*
X169800000Y-84952380D02*
X169800000Y-83952380D01*
X169704761Y-84095238D01*
X169609523Y-84190476D01*
X169514285Y-84238095D01*
X165857142Y-101166666D02*
X165904761Y-101214285D01*
X165952380Y-101357142D01*
X165952380Y-101452380D01*
X165904761Y-101595238D01*
X165809523Y-101690476D01*
X165714285Y-101738095D01*
X165523809Y-101785714D01*
X165380952Y-101785714D01*
X165190476Y-101738095D01*
X165095238Y-101690476D01*
X165000000Y-101595238D01*
X164952380Y-101452380D01*
X164952380Y-101357142D01*
X165000000Y-101214285D01*
X165047619Y-101166666D01*
X164952380Y-100261904D02*
X164952380Y-100738095D01*
X165428571Y-100785714D01*
X165380952Y-100738095D01*
X165333333Y-100642857D01*
X165333333Y-100404761D01*
X165380952Y-100309523D01*
X165428571Y-100261904D01*
X165523809Y-100214285D01*
X165761904Y-100214285D01*
X165857142Y-100261904D01*
X165904761Y-100309523D01*
X165952380Y-100404761D01*
X165952380Y-100642857D01*
X165904761Y-100738095D01*
X165857142Y-100785714D01*
X167857142Y-101166666D02*
X167904761Y-101214285D01*
X167952380Y-101357142D01*
X167952380Y-101452380D01*
X167904761Y-101595238D01*
X167809523Y-101690476D01*
X167714285Y-101738095D01*
X167523809Y-101785714D01*
X167380952Y-101785714D01*
X167190476Y-101738095D01*
X167095238Y-101690476D01*
X167000000Y-101595238D01*
X166952380Y-101452380D01*
X166952380Y-101357142D01*
X167000000Y-101214285D01*
X167047619Y-101166666D01*
X167285714Y-100309523D02*
X167952380Y-100309523D01*
X166904761Y-100547619D02*
X167619047Y-100785714D01*
X167619047Y-100166666D01*
X163857142Y-101166666D02*
X163904761Y-101214285D01*
X163952380Y-101357142D01*
X163952380Y-101452380D01*
X163904761Y-101595238D01*
X163809523Y-101690476D01*
X163714285Y-101738095D01*
X163523809Y-101785714D01*
X163380952Y-101785714D01*
X163190476Y-101738095D01*
X163095238Y-101690476D01*
X163000000Y-101595238D01*
X162952380Y-101452380D01*
X162952380Y-101357142D01*
X163000000Y-101214285D01*
X163047619Y-101166666D01*
X162952380Y-100833333D02*
X162952380Y-100214285D01*
X163333333Y-100547619D01*
X163333333Y-100404761D01*
X163380952Y-100309523D01*
X163428571Y-100261904D01*
X163523809Y-100214285D01*
X163761904Y-100214285D01*
X163857142Y-100261904D01*
X163904761Y-100309523D01*
X163952380Y-100404761D01*
X163952380Y-100690476D01*
X163904761Y-100785714D01*
X163857142Y-100833333D01*
X169857142Y-101166666D02*
X169904761Y-101214285D01*
X169952380Y-101357142D01*
X169952380Y-101452380D01*
X169904761Y-101595238D01*
X169809523Y-101690476D01*
X169714285Y-101738095D01*
X169523809Y-101785714D01*
X169380952Y-101785714D01*
X169190476Y-101738095D01*
X169095238Y-101690476D01*
X169000000Y-101595238D01*
X168952380Y-101452380D01*
X168952380Y-101357142D01*
X169000000Y-101214285D01*
X169047619Y-101166666D01*
X169047619Y-100785714D02*
X169000000Y-100738095D01*
X168952380Y-100642857D01*
X168952380Y-100404761D01*
X169000000Y-100309523D01*
X169047619Y-100261904D01*
X169142857Y-100214285D01*
X169238095Y-100214285D01*
X169380952Y-100261904D01*
X169952380Y-100833333D01*
X169952380Y-100214285D01*
X161857142Y-101166666D02*
X161904761Y-101214285D01*
X161952380Y-101357142D01*
X161952380Y-101452380D01*
X161904761Y-101595238D01*
X161809523Y-101690476D01*
X161714285Y-101738095D01*
X161523809Y-101785714D01*
X161380952Y-101785714D01*
X161190476Y-101738095D01*
X161095238Y-101690476D01*
X161000000Y-101595238D01*
X160952380Y-101452380D01*
X160952380Y-101357142D01*
X161000000Y-101214285D01*
X161047619Y-101166666D01*
X161952380Y-100214285D02*
X161952380Y-100785714D01*
X161952380Y-100500000D02*
X160952380Y-100500000D01*
X161095238Y-100595238D01*
X161190476Y-100690476D01*
X161238095Y-100785714D01*
%LPC*%
D12*
X150000000Y-101000000D03*
X150000000Y-82000000D03*
D13*
X160300000Y-81250000D03*
X160300000Y-83150000D03*
X158100000Y-83150000D03*
X158100000Y-82200000D03*
X158100000Y-81250000D03*
D14*
G36*
X158280691Y-94075176D02*
G01*
X158304401Y-94078693D01*
X158327652Y-94084517D01*
X158350220Y-94092592D01*
X158371889Y-94102841D01*
X158392448Y-94115164D01*
X158411701Y-94129442D01*
X158429461Y-94145539D01*
X158445558Y-94163299D01*
X158459836Y-94182552D01*
X158472159Y-94203111D01*
X158482408Y-94224780D01*
X158490483Y-94247348D01*
X158496307Y-94270599D01*
X158499824Y-94294309D01*
X158501000Y-94318250D01*
X158501000Y-94881750D01*
X158499824Y-94905691D01*
X158496307Y-94929401D01*
X158490483Y-94952652D01*
X158482408Y-94975220D01*
X158472159Y-94996889D01*
X158459836Y-95017448D01*
X158445558Y-95036701D01*
X158429461Y-95054461D01*
X158411701Y-95070558D01*
X158392448Y-95084836D01*
X158371889Y-95097159D01*
X158350220Y-95107408D01*
X158327652Y-95115483D01*
X158304401Y-95121307D01*
X158280691Y-95124824D01*
X158256750Y-95126000D01*
X157768250Y-95126000D01*
X157744309Y-95124824D01*
X157720599Y-95121307D01*
X157697348Y-95115483D01*
X157674780Y-95107408D01*
X157653111Y-95097159D01*
X157632552Y-95084836D01*
X157613299Y-95070558D01*
X157595539Y-95054461D01*
X157579442Y-95036701D01*
X157565164Y-95017448D01*
X157552841Y-94996889D01*
X157542592Y-94975220D01*
X157534517Y-94952652D01*
X157528693Y-94929401D01*
X157525176Y-94905691D01*
X157524000Y-94881750D01*
X157524000Y-94318250D01*
X157525176Y-94294309D01*
X157528693Y-94270599D01*
X157534517Y-94247348D01*
X157542592Y-94224780D01*
X157552841Y-94203111D01*
X157565164Y-94182552D01*
X157579442Y-94163299D01*
X157595539Y-94145539D01*
X157613299Y-94129442D01*
X157632552Y-94115164D01*
X157653111Y-94102841D01*
X157674780Y-94092592D01*
X157697348Y-94084517D01*
X157720599Y-94078693D01*
X157744309Y-94075176D01*
X157768250Y-94074000D01*
X158256750Y-94074000D01*
X158280691Y-94075176D01*
X158280691Y-94075176D01*
G37*
D15*
X158012500Y-94600000D03*
D14*
G36*
X159855691Y-94075176D02*
G01*
X159879401Y-94078693D01*
X159902652Y-94084517D01*
X159925220Y-94092592D01*
X159946889Y-94102841D01*
X159967448Y-94115164D01*
X159986701Y-94129442D01*
X160004461Y-94145539D01*
X160020558Y-94163299D01*
X160034836Y-94182552D01*
X160047159Y-94203111D01*
X160057408Y-94224780D01*
X160065483Y-94247348D01*
X160071307Y-94270599D01*
X160074824Y-94294309D01*
X160076000Y-94318250D01*
X160076000Y-94881750D01*
X160074824Y-94905691D01*
X160071307Y-94929401D01*
X160065483Y-94952652D01*
X160057408Y-94975220D01*
X160047159Y-94996889D01*
X160034836Y-95017448D01*
X160020558Y-95036701D01*
X160004461Y-95054461D01*
X159986701Y-95070558D01*
X159967448Y-95084836D01*
X159946889Y-95097159D01*
X159925220Y-95107408D01*
X159902652Y-95115483D01*
X159879401Y-95121307D01*
X159855691Y-95124824D01*
X159831750Y-95126000D01*
X159343250Y-95126000D01*
X159319309Y-95124824D01*
X159295599Y-95121307D01*
X159272348Y-95115483D01*
X159249780Y-95107408D01*
X159228111Y-95097159D01*
X159207552Y-95084836D01*
X159188299Y-95070558D01*
X159170539Y-95054461D01*
X159154442Y-95036701D01*
X159140164Y-95017448D01*
X159127841Y-94996889D01*
X159117592Y-94975220D01*
X159109517Y-94952652D01*
X159103693Y-94929401D01*
X159100176Y-94905691D01*
X159099000Y-94881750D01*
X159099000Y-94318250D01*
X159100176Y-94294309D01*
X159103693Y-94270599D01*
X159109517Y-94247348D01*
X159117592Y-94224780D01*
X159127841Y-94203111D01*
X159140164Y-94182552D01*
X159154442Y-94163299D01*
X159170539Y-94145539D01*
X159188299Y-94129442D01*
X159207552Y-94115164D01*
X159228111Y-94102841D01*
X159249780Y-94092592D01*
X159272348Y-94084517D01*
X159295599Y-94078693D01*
X159319309Y-94075176D01*
X159343250Y-94074000D01*
X159831750Y-94074000D01*
X159855691Y-94075176D01*
X159855691Y-94075176D01*
G37*
D15*
X159587500Y-94600000D03*
D14*
G36*
X158280691Y-91975176D02*
G01*
X158304401Y-91978693D01*
X158327652Y-91984517D01*
X158350220Y-91992592D01*
X158371889Y-92002841D01*
X158392448Y-92015164D01*
X158411701Y-92029442D01*
X158429461Y-92045539D01*
X158445558Y-92063299D01*
X158459836Y-92082552D01*
X158472159Y-92103111D01*
X158482408Y-92124780D01*
X158490483Y-92147348D01*
X158496307Y-92170599D01*
X158499824Y-92194309D01*
X158501000Y-92218250D01*
X158501000Y-92781750D01*
X158499824Y-92805691D01*
X158496307Y-92829401D01*
X158490483Y-92852652D01*
X158482408Y-92875220D01*
X158472159Y-92896889D01*
X158459836Y-92917448D01*
X158445558Y-92936701D01*
X158429461Y-92954461D01*
X158411701Y-92970558D01*
X158392448Y-92984836D01*
X158371889Y-92997159D01*
X158350220Y-93007408D01*
X158327652Y-93015483D01*
X158304401Y-93021307D01*
X158280691Y-93024824D01*
X158256750Y-93026000D01*
X157768250Y-93026000D01*
X157744309Y-93024824D01*
X157720599Y-93021307D01*
X157697348Y-93015483D01*
X157674780Y-93007408D01*
X157653111Y-92997159D01*
X157632552Y-92984836D01*
X157613299Y-92970558D01*
X157595539Y-92954461D01*
X157579442Y-92936701D01*
X157565164Y-92917448D01*
X157552841Y-92896889D01*
X157542592Y-92875220D01*
X157534517Y-92852652D01*
X157528693Y-92829401D01*
X157525176Y-92805691D01*
X157524000Y-92781750D01*
X157524000Y-92218250D01*
X157525176Y-92194309D01*
X157528693Y-92170599D01*
X157534517Y-92147348D01*
X157542592Y-92124780D01*
X157552841Y-92103111D01*
X157565164Y-92082552D01*
X157579442Y-92063299D01*
X157595539Y-92045539D01*
X157613299Y-92029442D01*
X157632552Y-92015164D01*
X157653111Y-92002841D01*
X157674780Y-91992592D01*
X157697348Y-91984517D01*
X157720599Y-91978693D01*
X157744309Y-91975176D01*
X157768250Y-91974000D01*
X158256750Y-91974000D01*
X158280691Y-91975176D01*
X158280691Y-91975176D01*
G37*
D15*
X158012500Y-92500000D03*
D14*
G36*
X159855691Y-91975176D02*
G01*
X159879401Y-91978693D01*
X159902652Y-91984517D01*
X159925220Y-91992592D01*
X159946889Y-92002841D01*
X159967448Y-92015164D01*
X159986701Y-92029442D01*
X160004461Y-92045539D01*
X160020558Y-92063299D01*
X160034836Y-92082552D01*
X160047159Y-92103111D01*
X160057408Y-92124780D01*
X160065483Y-92147348D01*
X160071307Y-92170599D01*
X160074824Y-92194309D01*
X160076000Y-92218250D01*
X160076000Y-92781750D01*
X160074824Y-92805691D01*
X160071307Y-92829401D01*
X160065483Y-92852652D01*
X160057408Y-92875220D01*
X160047159Y-92896889D01*
X160034836Y-92917448D01*
X160020558Y-92936701D01*
X160004461Y-92954461D01*
X159986701Y-92970558D01*
X159967448Y-92984836D01*
X159946889Y-92997159D01*
X159925220Y-93007408D01*
X159902652Y-93015483D01*
X159879401Y-93021307D01*
X159855691Y-93024824D01*
X159831750Y-93026000D01*
X159343250Y-93026000D01*
X159319309Y-93024824D01*
X159295599Y-93021307D01*
X159272348Y-93015483D01*
X159249780Y-93007408D01*
X159228111Y-92997159D01*
X159207552Y-92984836D01*
X159188299Y-92970558D01*
X159170539Y-92954461D01*
X159154442Y-92936701D01*
X159140164Y-92917448D01*
X159127841Y-92896889D01*
X159117592Y-92875220D01*
X159109517Y-92852652D01*
X159103693Y-92829401D01*
X159100176Y-92805691D01*
X159099000Y-92781750D01*
X159099000Y-92218250D01*
X159100176Y-92194309D01*
X159103693Y-92170599D01*
X159109517Y-92147348D01*
X159117592Y-92124780D01*
X159127841Y-92103111D01*
X159140164Y-92082552D01*
X159154442Y-92063299D01*
X159170539Y-92045539D01*
X159188299Y-92029442D01*
X159207552Y-92015164D01*
X159228111Y-92002841D01*
X159249780Y-91992592D01*
X159272348Y-91984517D01*
X159295599Y-91978693D01*
X159319309Y-91975176D01*
X159343250Y-91974000D01*
X159831750Y-91974000D01*
X159855691Y-91975176D01*
X159855691Y-91975176D01*
G37*
D15*
X159587500Y-92500000D03*
D16*
X154000000Y-98500000D03*
X156000000Y-97550000D03*
X156000000Y-99450000D03*
X157600000Y-98500000D03*
X159600000Y-97550000D03*
X159600000Y-99450000D03*
D14*
G36*
X162805691Y-82500176D02*
G01*
X162829401Y-82503693D01*
X162852652Y-82509517D01*
X162875220Y-82517592D01*
X162896889Y-82527841D01*
X162917448Y-82540164D01*
X162936701Y-82554442D01*
X162954461Y-82570539D01*
X162970558Y-82588299D01*
X162984836Y-82607552D01*
X162997159Y-82628111D01*
X163007408Y-82649780D01*
X163015483Y-82672348D01*
X163021307Y-82695599D01*
X163024824Y-82719309D01*
X163026000Y-82743250D01*
X163026000Y-83231750D01*
X163024824Y-83255691D01*
X163021307Y-83279401D01*
X163015483Y-83302652D01*
X163007408Y-83325220D01*
X162997159Y-83346889D01*
X162984836Y-83367448D01*
X162970558Y-83386701D01*
X162954461Y-83404461D01*
X162936701Y-83420558D01*
X162917448Y-83434836D01*
X162896889Y-83447159D01*
X162875220Y-83457408D01*
X162852652Y-83465483D01*
X162829401Y-83471307D01*
X162805691Y-83474824D01*
X162781750Y-83476000D01*
X162218250Y-83476000D01*
X162194309Y-83474824D01*
X162170599Y-83471307D01*
X162147348Y-83465483D01*
X162124780Y-83457408D01*
X162103111Y-83447159D01*
X162082552Y-83434836D01*
X162063299Y-83420558D01*
X162045539Y-83404461D01*
X162029442Y-83386701D01*
X162015164Y-83367448D01*
X162002841Y-83346889D01*
X161992592Y-83325220D01*
X161984517Y-83302652D01*
X161978693Y-83279401D01*
X161975176Y-83255691D01*
X161974000Y-83231750D01*
X161974000Y-82743250D01*
X161975176Y-82719309D01*
X161978693Y-82695599D01*
X161984517Y-82672348D01*
X161992592Y-82649780D01*
X162002841Y-82628111D01*
X162015164Y-82607552D01*
X162029442Y-82588299D01*
X162045539Y-82570539D01*
X162063299Y-82554442D01*
X162082552Y-82540164D01*
X162103111Y-82527841D01*
X162124780Y-82517592D01*
X162147348Y-82509517D01*
X162170599Y-82503693D01*
X162194309Y-82500176D01*
X162218250Y-82499000D01*
X162781750Y-82499000D01*
X162805691Y-82500176D01*
X162805691Y-82500176D01*
G37*
D15*
X162500000Y-82987500D03*
D14*
G36*
X162805691Y-80925176D02*
G01*
X162829401Y-80928693D01*
X162852652Y-80934517D01*
X162875220Y-80942592D01*
X162896889Y-80952841D01*
X162917448Y-80965164D01*
X162936701Y-80979442D01*
X162954461Y-80995539D01*
X162970558Y-81013299D01*
X162984836Y-81032552D01*
X162997159Y-81053111D01*
X163007408Y-81074780D01*
X163015483Y-81097348D01*
X163021307Y-81120599D01*
X163024824Y-81144309D01*
X163026000Y-81168250D01*
X163026000Y-81656750D01*
X163024824Y-81680691D01*
X163021307Y-81704401D01*
X163015483Y-81727652D01*
X163007408Y-81750220D01*
X162997159Y-81771889D01*
X162984836Y-81792448D01*
X162970558Y-81811701D01*
X162954461Y-81829461D01*
X162936701Y-81845558D01*
X162917448Y-81859836D01*
X162896889Y-81872159D01*
X162875220Y-81882408D01*
X162852652Y-81890483D01*
X162829401Y-81896307D01*
X162805691Y-81899824D01*
X162781750Y-81901000D01*
X162218250Y-81901000D01*
X162194309Y-81899824D01*
X162170599Y-81896307D01*
X162147348Y-81890483D01*
X162124780Y-81882408D01*
X162103111Y-81872159D01*
X162082552Y-81859836D01*
X162063299Y-81845558D01*
X162045539Y-81829461D01*
X162029442Y-81811701D01*
X162015164Y-81792448D01*
X162002841Y-81771889D01*
X161992592Y-81750220D01*
X161984517Y-81727652D01*
X161978693Y-81704401D01*
X161975176Y-81680691D01*
X161974000Y-81656750D01*
X161974000Y-81168250D01*
X161975176Y-81144309D01*
X161978693Y-81120599D01*
X161984517Y-81097348D01*
X161992592Y-81074780D01*
X162002841Y-81053111D01*
X162015164Y-81032552D01*
X162029442Y-81013299D01*
X162045539Y-80995539D01*
X162063299Y-80979442D01*
X162082552Y-80965164D01*
X162103111Y-80952841D01*
X162124780Y-80942592D01*
X162147348Y-80934517D01*
X162170599Y-80928693D01*
X162194309Y-80925176D01*
X162218250Y-80924000D01*
X162781750Y-80924000D01*
X162805691Y-80925176D01*
X162805691Y-80925176D01*
G37*
D15*
X162500000Y-81412500D03*
D14*
G36*
X158680691Y-84675176D02*
G01*
X158704401Y-84678693D01*
X158727652Y-84684517D01*
X158750220Y-84692592D01*
X158771889Y-84702841D01*
X158792448Y-84715164D01*
X158811701Y-84729442D01*
X158829461Y-84745539D01*
X158845558Y-84763299D01*
X158859836Y-84782552D01*
X158872159Y-84803111D01*
X158882408Y-84824780D01*
X158890483Y-84847348D01*
X158896307Y-84870599D01*
X158899824Y-84894309D01*
X158901000Y-84918250D01*
X158901000Y-85481750D01*
X158899824Y-85505691D01*
X158896307Y-85529401D01*
X158890483Y-85552652D01*
X158882408Y-85575220D01*
X158872159Y-85596889D01*
X158859836Y-85617448D01*
X158845558Y-85636701D01*
X158829461Y-85654461D01*
X158811701Y-85670558D01*
X158792448Y-85684836D01*
X158771889Y-85697159D01*
X158750220Y-85707408D01*
X158727652Y-85715483D01*
X158704401Y-85721307D01*
X158680691Y-85724824D01*
X158656750Y-85726000D01*
X158168250Y-85726000D01*
X158144309Y-85724824D01*
X158120599Y-85721307D01*
X158097348Y-85715483D01*
X158074780Y-85707408D01*
X158053111Y-85697159D01*
X158032552Y-85684836D01*
X158013299Y-85670558D01*
X157995539Y-85654461D01*
X157979442Y-85636701D01*
X157965164Y-85617448D01*
X157952841Y-85596889D01*
X157942592Y-85575220D01*
X157934517Y-85552652D01*
X157928693Y-85529401D01*
X157925176Y-85505691D01*
X157924000Y-85481750D01*
X157924000Y-84918250D01*
X157925176Y-84894309D01*
X157928693Y-84870599D01*
X157934517Y-84847348D01*
X157942592Y-84824780D01*
X157952841Y-84803111D01*
X157965164Y-84782552D01*
X157979442Y-84763299D01*
X157995539Y-84745539D01*
X158013299Y-84729442D01*
X158032552Y-84715164D01*
X158053111Y-84702841D01*
X158074780Y-84692592D01*
X158097348Y-84684517D01*
X158120599Y-84678693D01*
X158144309Y-84675176D01*
X158168250Y-84674000D01*
X158656750Y-84674000D01*
X158680691Y-84675176D01*
X158680691Y-84675176D01*
G37*
D15*
X158412500Y-85200000D03*
D14*
G36*
X160255691Y-84675176D02*
G01*
X160279401Y-84678693D01*
X160302652Y-84684517D01*
X160325220Y-84692592D01*
X160346889Y-84702841D01*
X160367448Y-84715164D01*
X160386701Y-84729442D01*
X160404461Y-84745539D01*
X160420558Y-84763299D01*
X160434836Y-84782552D01*
X160447159Y-84803111D01*
X160457408Y-84824780D01*
X160465483Y-84847348D01*
X160471307Y-84870599D01*
X160474824Y-84894309D01*
X160476000Y-84918250D01*
X160476000Y-85481750D01*
X160474824Y-85505691D01*
X160471307Y-85529401D01*
X160465483Y-85552652D01*
X160457408Y-85575220D01*
X160447159Y-85596889D01*
X160434836Y-85617448D01*
X160420558Y-85636701D01*
X160404461Y-85654461D01*
X160386701Y-85670558D01*
X160367448Y-85684836D01*
X160346889Y-85697159D01*
X160325220Y-85707408D01*
X160302652Y-85715483D01*
X160279401Y-85721307D01*
X160255691Y-85724824D01*
X160231750Y-85726000D01*
X159743250Y-85726000D01*
X159719309Y-85724824D01*
X159695599Y-85721307D01*
X159672348Y-85715483D01*
X159649780Y-85707408D01*
X159628111Y-85697159D01*
X159607552Y-85684836D01*
X159588299Y-85670558D01*
X159570539Y-85654461D01*
X159554442Y-85636701D01*
X159540164Y-85617448D01*
X159527841Y-85596889D01*
X159517592Y-85575220D01*
X159509517Y-85552652D01*
X159503693Y-85529401D01*
X159500176Y-85505691D01*
X159499000Y-85481750D01*
X159499000Y-84918250D01*
X159500176Y-84894309D01*
X159503693Y-84870599D01*
X159509517Y-84847348D01*
X159517592Y-84824780D01*
X159527841Y-84803111D01*
X159540164Y-84782552D01*
X159554442Y-84763299D01*
X159570539Y-84745539D01*
X159588299Y-84729442D01*
X159607552Y-84715164D01*
X159628111Y-84702841D01*
X159649780Y-84692592D01*
X159672348Y-84684517D01*
X159695599Y-84678693D01*
X159719309Y-84675176D01*
X159743250Y-84674000D01*
X160231750Y-84674000D01*
X160255691Y-84675176D01*
X160255691Y-84675176D01*
G37*
D15*
X159987500Y-85200000D03*
D14*
G36*
X156208141Y-82600297D02*
G01*
X156234278Y-82604174D01*
X156259909Y-82610594D01*
X156284788Y-82619495D01*
X156308674Y-82630793D01*
X156331337Y-82644377D01*
X156352560Y-82660117D01*
X156372139Y-82677861D01*
X156389883Y-82697440D01*
X156405623Y-82718663D01*
X156419207Y-82741326D01*
X156430505Y-82765212D01*
X156439406Y-82790091D01*
X156445826Y-82815722D01*
X156449703Y-82841859D01*
X156451000Y-82868250D01*
X156451000Y-83406750D01*
X156449703Y-83433141D01*
X156445826Y-83459278D01*
X156439406Y-83484909D01*
X156430505Y-83509788D01*
X156419207Y-83533674D01*
X156405623Y-83556337D01*
X156389883Y-83577560D01*
X156372139Y-83597139D01*
X156352560Y-83614883D01*
X156331337Y-83630623D01*
X156308674Y-83644207D01*
X156284788Y-83655505D01*
X156259909Y-83664406D01*
X156234278Y-83670826D01*
X156208141Y-83674703D01*
X156181750Y-83676000D01*
X155218250Y-83676000D01*
X155191859Y-83674703D01*
X155165722Y-83670826D01*
X155140091Y-83664406D01*
X155115212Y-83655505D01*
X155091326Y-83644207D01*
X155068663Y-83630623D01*
X155047440Y-83614883D01*
X155027861Y-83597139D01*
X155010117Y-83577560D01*
X154994377Y-83556337D01*
X154980793Y-83533674D01*
X154969495Y-83509788D01*
X154960594Y-83484909D01*
X154954174Y-83459278D01*
X154950297Y-83433141D01*
X154949000Y-83406750D01*
X154949000Y-82868250D01*
X154950297Y-82841859D01*
X154954174Y-82815722D01*
X154960594Y-82790091D01*
X154969495Y-82765212D01*
X154980793Y-82741326D01*
X154994377Y-82718663D01*
X155010117Y-82697440D01*
X155027861Y-82677861D01*
X155047440Y-82660117D01*
X155068663Y-82644377D01*
X155091326Y-82630793D01*
X155115212Y-82619495D01*
X155140091Y-82610594D01*
X155165722Y-82604174D01*
X155191859Y-82600297D01*
X155218250Y-82599000D01*
X156181750Y-82599000D01*
X156208141Y-82600297D01*
X156208141Y-82600297D01*
G37*
D17*
X155700000Y-83137500D03*
D14*
G36*
X156208141Y-80725297D02*
G01*
X156234278Y-80729174D01*
X156259909Y-80735594D01*
X156284788Y-80744495D01*
X156308674Y-80755793D01*
X156331337Y-80769377D01*
X156352560Y-80785117D01*
X156372139Y-80802861D01*
X156389883Y-80822440D01*
X156405623Y-80843663D01*
X156419207Y-80866326D01*
X156430505Y-80890212D01*
X156439406Y-80915091D01*
X156445826Y-80940722D01*
X156449703Y-80966859D01*
X156451000Y-80993250D01*
X156451000Y-81531750D01*
X156449703Y-81558141D01*
X156445826Y-81584278D01*
X156439406Y-81609909D01*
X156430505Y-81634788D01*
X156419207Y-81658674D01*
X156405623Y-81681337D01*
X156389883Y-81702560D01*
X156372139Y-81722139D01*
X156352560Y-81739883D01*
X156331337Y-81755623D01*
X156308674Y-81769207D01*
X156284788Y-81780505D01*
X156259909Y-81789406D01*
X156234278Y-81795826D01*
X156208141Y-81799703D01*
X156181750Y-81801000D01*
X155218250Y-81801000D01*
X155191859Y-81799703D01*
X155165722Y-81795826D01*
X155140091Y-81789406D01*
X155115212Y-81780505D01*
X155091326Y-81769207D01*
X155068663Y-81755623D01*
X155047440Y-81739883D01*
X155027861Y-81722139D01*
X155010117Y-81702560D01*
X154994377Y-81681337D01*
X154980793Y-81658674D01*
X154969495Y-81634788D01*
X154960594Y-81609909D01*
X154954174Y-81584278D01*
X154950297Y-81558141D01*
X154949000Y-81531750D01*
X154949000Y-80993250D01*
X154950297Y-80966859D01*
X154954174Y-80940722D01*
X154960594Y-80915091D01*
X154969495Y-80890212D01*
X154980793Y-80866326D01*
X154994377Y-80843663D01*
X155010117Y-80822440D01*
X155027861Y-80802861D01*
X155047440Y-80785117D01*
X155068663Y-80769377D01*
X155091326Y-80755793D01*
X155115212Y-80744495D01*
X155140091Y-80735594D01*
X155165722Y-80729174D01*
X155191859Y-80725297D01*
X155218250Y-80724000D01*
X156181750Y-80724000D01*
X156208141Y-80725297D01*
X156208141Y-80725297D01*
G37*
D17*
X155700000Y-81262500D03*
D18*
X162800000Y-90355000D03*
X163600000Y-90355000D03*
X164400000Y-90355000D03*
X165200000Y-90355000D03*
X165200000Y-92645000D03*
X164400000Y-92645000D03*
X163600000Y-92645000D03*
D19*
X162800000Y-92600000D03*
D20*
X154000000Y-85500000D03*
D14*
G36*
X164880691Y-82575176D02*
G01*
X164904401Y-82578693D01*
X164927652Y-82584517D01*
X164950220Y-82592592D01*
X164971889Y-82602841D01*
X164992448Y-82615164D01*
X165011701Y-82629442D01*
X165029461Y-82645539D01*
X165045558Y-82663299D01*
X165059836Y-82682552D01*
X165072159Y-82703111D01*
X165082408Y-82724780D01*
X165090483Y-82747348D01*
X165096307Y-82770599D01*
X165099824Y-82794309D01*
X165101000Y-82818250D01*
X165101000Y-83381750D01*
X165099824Y-83405691D01*
X165096307Y-83429401D01*
X165090483Y-83452652D01*
X165082408Y-83475220D01*
X165072159Y-83496889D01*
X165059836Y-83517448D01*
X165045558Y-83536701D01*
X165029461Y-83554461D01*
X165011701Y-83570558D01*
X164992448Y-83584836D01*
X164971889Y-83597159D01*
X164950220Y-83607408D01*
X164927652Y-83615483D01*
X164904401Y-83621307D01*
X164880691Y-83624824D01*
X164856750Y-83626000D01*
X164368250Y-83626000D01*
X164344309Y-83624824D01*
X164320599Y-83621307D01*
X164297348Y-83615483D01*
X164274780Y-83607408D01*
X164253111Y-83597159D01*
X164232552Y-83584836D01*
X164213299Y-83570558D01*
X164195539Y-83554461D01*
X164179442Y-83536701D01*
X164165164Y-83517448D01*
X164152841Y-83496889D01*
X164142592Y-83475220D01*
X164134517Y-83452652D01*
X164128693Y-83429401D01*
X164125176Y-83405691D01*
X164124000Y-83381750D01*
X164124000Y-82818250D01*
X164125176Y-82794309D01*
X164128693Y-82770599D01*
X164134517Y-82747348D01*
X164142592Y-82724780D01*
X164152841Y-82703111D01*
X164165164Y-82682552D01*
X164179442Y-82663299D01*
X164195539Y-82645539D01*
X164213299Y-82629442D01*
X164232552Y-82615164D01*
X164253111Y-82602841D01*
X164274780Y-82592592D01*
X164297348Y-82584517D01*
X164320599Y-82578693D01*
X164344309Y-82575176D01*
X164368250Y-82574000D01*
X164856750Y-82574000D01*
X164880691Y-82575176D01*
X164880691Y-82575176D01*
G37*
D15*
X164612500Y-83100000D03*
D14*
G36*
X166455691Y-82575176D02*
G01*
X166479401Y-82578693D01*
X166502652Y-82584517D01*
X166525220Y-82592592D01*
X166546889Y-82602841D01*
X166567448Y-82615164D01*
X166586701Y-82629442D01*
X166604461Y-82645539D01*
X166620558Y-82663299D01*
X166634836Y-82682552D01*
X166647159Y-82703111D01*
X166657408Y-82724780D01*
X166665483Y-82747348D01*
X166671307Y-82770599D01*
X166674824Y-82794309D01*
X166676000Y-82818250D01*
X166676000Y-83381750D01*
X166674824Y-83405691D01*
X166671307Y-83429401D01*
X166665483Y-83452652D01*
X166657408Y-83475220D01*
X166647159Y-83496889D01*
X166634836Y-83517448D01*
X166620558Y-83536701D01*
X166604461Y-83554461D01*
X166586701Y-83570558D01*
X166567448Y-83584836D01*
X166546889Y-83597159D01*
X166525220Y-83607408D01*
X166502652Y-83615483D01*
X166479401Y-83621307D01*
X166455691Y-83624824D01*
X166431750Y-83626000D01*
X165943250Y-83626000D01*
X165919309Y-83624824D01*
X165895599Y-83621307D01*
X165872348Y-83615483D01*
X165849780Y-83607408D01*
X165828111Y-83597159D01*
X165807552Y-83584836D01*
X165788299Y-83570558D01*
X165770539Y-83554461D01*
X165754442Y-83536701D01*
X165740164Y-83517448D01*
X165727841Y-83496889D01*
X165717592Y-83475220D01*
X165709517Y-83452652D01*
X165703693Y-83429401D01*
X165700176Y-83405691D01*
X165699000Y-83381750D01*
X165699000Y-82818250D01*
X165700176Y-82794309D01*
X165703693Y-82770599D01*
X165709517Y-82747348D01*
X165717592Y-82724780D01*
X165727841Y-82703111D01*
X165740164Y-82682552D01*
X165754442Y-82663299D01*
X165770539Y-82645539D01*
X165788299Y-82629442D01*
X165807552Y-82615164D01*
X165828111Y-82602841D01*
X165849780Y-82592592D01*
X165872348Y-82584517D01*
X165895599Y-82578693D01*
X165919309Y-82575176D01*
X165943250Y-82574000D01*
X166431750Y-82574000D01*
X166455691Y-82575176D01*
X166455691Y-82575176D01*
G37*
D15*
X166187500Y-83100000D03*
D14*
G36*
X166455691Y-80775176D02*
G01*
X166479401Y-80778693D01*
X166502652Y-80784517D01*
X166525220Y-80792592D01*
X166546889Y-80802841D01*
X166567448Y-80815164D01*
X166586701Y-80829442D01*
X166604461Y-80845539D01*
X166620558Y-80863299D01*
X166634836Y-80882552D01*
X166647159Y-80903111D01*
X166657408Y-80924780D01*
X166665483Y-80947348D01*
X166671307Y-80970599D01*
X166674824Y-80994309D01*
X166676000Y-81018250D01*
X166676000Y-81581750D01*
X166674824Y-81605691D01*
X166671307Y-81629401D01*
X166665483Y-81652652D01*
X166657408Y-81675220D01*
X166647159Y-81696889D01*
X166634836Y-81717448D01*
X166620558Y-81736701D01*
X166604461Y-81754461D01*
X166586701Y-81770558D01*
X166567448Y-81784836D01*
X166546889Y-81797159D01*
X166525220Y-81807408D01*
X166502652Y-81815483D01*
X166479401Y-81821307D01*
X166455691Y-81824824D01*
X166431750Y-81826000D01*
X165943250Y-81826000D01*
X165919309Y-81824824D01*
X165895599Y-81821307D01*
X165872348Y-81815483D01*
X165849780Y-81807408D01*
X165828111Y-81797159D01*
X165807552Y-81784836D01*
X165788299Y-81770558D01*
X165770539Y-81754461D01*
X165754442Y-81736701D01*
X165740164Y-81717448D01*
X165727841Y-81696889D01*
X165717592Y-81675220D01*
X165709517Y-81652652D01*
X165703693Y-81629401D01*
X165700176Y-81605691D01*
X165699000Y-81581750D01*
X165699000Y-81018250D01*
X165700176Y-80994309D01*
X165703693Y-80970599D01*
X165709517Y-80947348D01*
X165717592Y-80924780D01*
X165727841Y-80903111D01*
X165740164Y-80882552D01*
X165754442Y-80863299D01*
X165770539Y-80845539D01*
X165788299Y-80829442D01*
X165807552Y-80815164D01*
X165828111Y-80802841D01*
X165849780Y-80792592D01*
X165872348Y-80784517D01*
X165895599Y-80778693D01*
X165919309Y-80775176D01*
X165943250Y-80774000D01*
X166431750Y-80774000D01*
X166455691Y-80775176D01*
X166455691Y-80775176D01*
G37*
D15*
X166187500Y-81300000D03*
D14*
G36*
X164880691Y-80775176D02*
G01*
X164904401Y-80778693D01*
X164927652Y-80784517D01*
X164950220Y-80792592D01*
X164971889Y-80802841D01*
X164992448Y-80815164D01*
X165011701Y-80829442D01*
X165029461Y-80845539D01*
X165045558Y-80863299D01*
X165059836Y-80882552D01*
X165072159Y-80903111D01*
X165082408Y-80924780D01*
X165090483Y-80947348D01*
X165096307Y-80970599D01*
X165099824Y-80994309D01*
X165101000Y-81018250D01*
X165101000Y-81581750D01*
X165099824Y-81605691D01*
X165096307Y-81629401D01*
X165090483Y-81652652D01*
X165082408Y-81675220D01*
X165072159Y-81696889D01*
X165059836Y-81717448D01*
X165045558Y-81736701D01*
X165029461Y-81754461D01*
X165011701Y-81770558D01*
X164992448Y-81784836D01*
X164971889Y-81797159D01*
X164950220Y-81807408D01*
X164927652Y-81815483D01*
X164904401Y-81821307D01*
X164880691Y-81824824D01*
X164856750Y-81826000D01*
X164368250Y-81826000D01*
X164344309Y-81824824D01*
X164320599Y-81821307D01*
X164297348Y-81815483D01*
X164274780Y-81807408D01*
X164253111Y-81797159D01*
X164232552Y-81784836D01*
X164213299Y-81770558D01*
X164195539Y-81754461D01*
X164179442Y-81736701D01*
X164165164Y-81717448D01*
X164152841Y-81696889D01*
X164142592Y-81675220D01*
X164134517Y-81652652D01*
X164128693Y-81629401D01*
X164125176Y-81605691D01*
X164124000Y-81581750D01*
X164124000Y-81018250D01*
X164125176Y-80994309D01*
X164128693Y-80970599D01*
X164134517Y-80947348D01*
X164142592Y-80924780D01*
X164152841Y-80903111D01*
X164165164Y-80882552D01*
X164179442Y-80863299D01*
X164195539Y-80845539D01*
X164213299Y-80829442D01*
X164232552Y-80815164D01*
X164253111Y-80802841D01*
X164274780Y-80792592D01*
X164297348Y-80784517D01*
X164320599Y-80778693D01*
X164344309Y-80775176D01*
X164368250Y-80774000D01*
X164856750Y-80774000D01*
X164880691Y-80775176D01*
X164880691Y-80775176D01*
G37*
D15*
X164612500Y-81300000D03*
D14*
G36*
X168680691Y-80775176D02*
G01*
X168704401Y-80778693D01*
X168727652Y-80784517D01*
X168750220Y-80792592D01*
X168771889Y-80802841D01*
X168792448Y-80815164D01*
X168811701Y-80829442D01*
X168829461Y-80845539D01*
X168845558Y-80863299D01*
X168859836Y-80882552D01*
X168872159Y-80903111D01*
X168882408Y-80924780D01*
X168890483Y-80947348D01*
X168896307Y-80970599D01*
X168899824Y-80994309D01*
X168901000Y-81018250D01*
X168901000Y-81581750D01*
X168899824Y-81605691D01*
X168896307Y-81629401D01*
X168890483Y-81652652D01*
X168882408Y-81675220D01*
X168872159Y-81696889D01*
X168859836Y-81717448D01*
X168845558Y-81736701D01*
X168829461Y-81754461D01*
X168811701Y-81770558D01*
X168792448Y-81784836D01*
X168771889Y-81797159D01*
X168750220Y-81807408D01*
X168727652Y-81815483D01*
X168704401Y-81821307D01*
X168680691Y-81824824D01*
X168656750Y-81826000D01*
X168168250Y-81826000D01*
X168144309Y-81824824D01*
X168120599Y-81821307D01*
X168097348Y-81815483D01*
X168074780Y-81807408D01*
X168053111Y-81797159D01*
X168032552Y-81784836D01*
X168013299Y-81770558D01*
X167995539Y-81754461D01*
X167979442Y-81736701D01*
X167965164Y-81717448D01*
X167952841Y-81696889D01*
X167942592Y-81675220D01*
X167934517Y-81652652D01*
X167928693Y-81629401D01*
X167925176Y-81605691D01*
X167924000Y-81581750D01*
X167924000Y-81018250D01*
X167925176Y-80994309D01*
X167928693Y-80970599D01*
X167934517Y-80947348D01*
X167942592Y-80924780D01*
X167952841Y-80903111D01*
X167965164Y-80882552D01*
X167979442Y-80863299D01*
X167995539Y-80845539D01*
X168013299Y-80829442D01*
X168032552Y-80815164D01*
X168053111Y-80802841D01*
X168074780Y-80792592D01*
X168097348Y-80784517D01*
X168120599Y-80778693D01*
X168144309Y-80775176D01*
X168168250Y-80774000D01*
X168656750Y-80774000D01*
X168680691Y-80775176D01*
X168680691Y-80775176D01*
G37*
D15*
X168412500Y-81300000D03*
D14*
G36*
X170255691Y-80775176D02*
G01*
X170279401Y-80778693D01*
X170302652Y-80784517D01*
X170325220Y-80792592D01*
X170346889Y-80802841D01*
X170367448Y-80815164D01*
X170386701Y-80829442D01*
X170404461Y-80845539D01*
X170420558Y-80863299D01*
X170434836Y-80882552D01*
X170447159Y-80903111D01*
X170457408Y-80924780D01*
X170465483Y-80947348D01*
X170471307Y-80970599D01*
X170474824Y-80994309D01*
X170476000Y-81018250D01*
X170476000Y-81581750D01*
X170474824Y-81605691D01*
X170471307Y-81629401D01*
X170465483Y-81652652D01*
X170457408Y-81675220D01*
X170447159Y-81696889D01*
X170434836Y-81717448D01*
X170420558Y-81736701D01*
X170404461Y-81754461D01*
X170386701Y-81770558D01*
X170367448Y-81784836D01*
X170346889Y-81797159D01*
X170325220Y-81807408D01*
X170302652Y-81815483D01*
X170279401Y-81821307D01*
X170255691Y-81824824D01*
X170231750Y-81826000D01*
X169743250Y-81826000D01*
X169719309Y-81824824D01*
X169695599Y-81821307D01*
X169672348Y-81815483D01*
X169649780Y-81807408D01*
X169628111Y-81797159D01*
X169607552Y-81784836D01*
X169588299Y-81770558D01*
X169570539Y-81754461D01*
X169554442Y-81736701D01*
X169540164Y-81717448D01*
X169527841Y-81696889D01*
X169517592Y-81675220D01*
X169509517Y-81652652D01*
X169503693Y-81629401D01*
X169500176Y-81605691D01*
X169499000Y-81581750D01*
X169499000Y-81018250D01*
X169500176Y-80994309D01*
X169503693Y-80970599D01*
X169509517Y-80947348D01*
X169517592Y-80924780D01*
X169527841Y-80903111D01*
X169540164Y-80882552D01*
X169554442Y-80863299D01*
X169570539Y-80845539D01*
X169588299Y-80829442D01*
X169607552Y-80815164D01*
X169628111Y-80802841D01*
X169649780Y-80792592D01*
X169672348Y-80784517D01*
X169695599Y-80778693D01*
X169719309Y-80775176D01*
X169743250Y-80774000D01*
X170231750Y-80774000D01*
X170255691Y-80775176D01*
X170255691Y-80775176D01*
G37*
D15*
X169987500Y-81300000D03*
D14*
G36*
X168680691Y-82575176D02*
G01*
X168704401Y-82578693D01*
X168727652Y-82584517D01*
X168750220Y-82592592D01*
X168771889Y-82602841D01*
X168792448Y-82615164D01*
X168811701Y-82629442D01*
X168829461Y-82645539D01*
X168845558Y-82663299D01*
X168859836Y-82682552D01*
X168872159Y-82703111D01*
X168882408Y-82724780D01*
X168890483Y-82747348D01*
X168896307Y-82770599D01*
X168899824Y-82794309D01*
X168901000Y-82818250D01*
X168901000Y-83381750D01*
X168899824Y-83405691D01*
X168896307Y-83429401D01*
X168890483Y-83452652D01*
X168882408Y-83475220D01*
X168872159Y-83496889D01*
X168859836Y-83517448D01*
X168845558Y-83536701D01*
X168829461Y-83554461D01*
X168811701Y-83570558D01*
X168792448Y-83584836D01*
X168771889Y-83597159D01*
X168750220Y-83607408D01*
X168727652Y-83615483D01*
X168704401Y-83621307D01*
X168680691Y-83624824D01*
X168656750Y-83626000D01*
X168168250Y-83626000D01*
X168144309Y-83624824D01*
X168120599Y-83621307D01*
X168097348Y-83615483D01*
X168074780Y-83607408D01*
X168053111Y-83597159D01*
X168032552Y-83584836D01*
X168013299Y-83570558D01*
X167995539Y-83554461D01*
X167979442Y-83536701D01*
X167965164Y-83517448D01*
X167952841Y-83496889D01*
X167942592Y-83475220D01*
X167934517Y-83452652D01*
X167928693Y-83429401D01*
X167925176Y-83405691D01*
X167924000Y-83381750D01*
X167924000Y-82818250D01*
X167925176Y-82794309D01*
X167928693Y-82770599D01*
X167934517Y-82747348D01*
X167942592Y-82724780D01*
X167952841Y-82703111D01*
X167965164Y-82682552D01*
X167979442Y-82663299D01*
X167995539Y-82645539D01*
X168013299Y-82629442D01*
X168032552Y-82615164D01*
X168053111Y-82602841D01*
X168074780Y-82592592D01*
X168097348Y-82584517D01*
X168120599Y-82578693D01*
X168144309Y-82575176D01*
X168168250Y-82574000D01*
X168656750Y-82574000D01*
X168680691Y-82575176D01*
X168680691Y-82575176D01*
G37*
D15*
X168412500Y-83100000D03*
D14*
G36*
X170255691Y-82575176D02*
G01*
X170279401Y-82578693D01*
X170302652Y-82584517D01*
X170325220Y-82592592D01*
X170346889Y-82602841D01*
X170367448Y-82615164D01*
X170386701Y-82629442D01*
X170404461Y-82645539D01*
X170420558Y-82663299D01*
X170434836Y-82682552D01*
X170447159Y-82703111D01*
X170457408Y-82724780D01*
X170465483Y-82747348D01*
X170471307Y-82770599D01*
X170474824Y-82794309D01*
X170476000Y-82818250D01*
X170476000Y-83381750D01*
X170474824Y-83405691D01*
X170471307Y-83429401D01*
X170465483Y-83452652D01*
X170457408Y-83475220D01*
X170447159Y-83496889D01*
X170434836Y-83517448D01*
X170420558Y-83536701D01*
X170404461Y-83554461D01*
X170386701Y-83570558D01*
X170367448Y-83584836D01*
X170346889Y-83597159D01*
X170325220Y-83607408D01*
X170302652Y-83615483D01*
X170279401Y-83621307D01*
X170255691Y-83624824D01*
X170231750Y-83626000D01*
X169743250Y-83626000D01*
X169719309Y-83624824D01*
X169695599Y-83621307D01*
X169672348Y-83615483D01*
X169649780Y-83607408D01*
X169628111Y-83597159D01*
X169607552Y-83584836D01*
X169588299Y-83570558D01*
X169570539Y-83554461D01*
X169554442Y-83536701D01*
X169540164Y-83517448D01*
X169527841Y-83496889D01*
X169517592Y-83475220D01*
X169509517Y-83452652D01*
X169503693Y-83429401D01*
X169500176Y-83405691D01*
X169499000Y-83381750D01*
X169499000Y-82818250D01*
X169500176Y-82794309D01*
X169503693Y-82770599D01*
X169509517Y-82747348D01*
X169517592Y-82724780D01*
X169527841Y-82703111D01*
X169540164Y-82682552D01*
X169554442Y-82663299D01*
X169570539Y-82645539D01*
X169588299Y-82629442D01*
X169607552Y-82615164D01*
X169628111Y-82602841D01*
X169649780Y-82592592D01*
X169672348Y-82584517D01*
X169695599Y-82578693D01*
X169719309Y-82575176D01*
X169743250Y-82574000D01*
X170231750Y-82574000D01*
X170255691Y-82575176D01*
X170255691Y-82575176D01*
G37*
D15*
X169987500Y-83100000D03*
D21*
X154000000Y-94500000D03*
X154000000Y-92500000D03*
X154000000Y-90500000D03*
X154000000Y-88500000D03*
D14*
G36*
X166008141Y-98900297D02*
G01*
X166034278Y-98904174D01*
X166059909Y-98910594D01*
X166084788Y-98919495D01*
X166108674Y-98930793D01*
X166131337Y-98944377D01*
X166152560Y-98960117D01*
X166172139Y-98977861D01*
X166189883Y-98997440D01*
X166205623Y-99018663D01*
X166219207Y-99041326D01*
X166230505Y-99065212D01*
X166239406Y-99090091D01*
X166245826Y-99115722D01*
X166249703Y-99141859D01*
X166251000Y-99168250D01*
X166251000Y-99706750D01*
X166249703Y-99733141D01*
X166245826Y-99759278D01*
X166239406Y-99784909D01*
X166230505Y-99809788D01*
X166219207Y-99833674D01*
X166205623Y-99856337D01*
X166189883Y-99877560D01*
X166172139Y-99897139D01*
X166152560Y-99914883D01*
X166131337Y-99930623D01*
X166108674Y-99944207D01*
X166084788Y-99955505D01*
X166059909Y-99964406D01*
X166034278Y-99970826D01*
X166008141Y-99974703D01*
X165981750Y-99976000D01*
X165018250Y-99976000D01*
X164991859Y-99974703D01*
X164965722Y-99970826D01*
X164940091Y-99964406D01*
X164915212Y-99955505D01*
X164891326Y-99944207D01*
X164868663Y-99930623D01*
X164847440Y-99914883D01*
X164827861Y-99897139D01*
X164810117Y-99877560D01*
X164794377Y-99856337D01*
X164780793Y-99833674D01*
X164769495Y-99809788D01*
X164760594Y-99784909D01*
X164754174Y-99759278D01*
X164750297Y-99733141D01*
X164749000Y-99706750D01*
X164749000Y-99168250D01*
X164750297Y-99141859D01*
X164754174Y-99115722D01*
X164760594Y-99090091D01*
X164769495Y-99065212D01*
X164780793Y-99041326D01*
X164794377Y-99018663D01*
X164810117Y-98997440D01*
X164827861Y-98977861D01*
X164847440Y-98960117D01*
X164868663Y-98944377D01*
X164891326Y-98930793D01*
X164915212Y-98919495D01*
X164940091Y-98910594D01*
X164965722Y-98904174D01*
X164991859Y-98900297D01*
X165018250Y-98899000D01*
X165981750Y-98899000D01*
X166008141Y-98900297D01*
X166008141Y-98900297D01*
G37*
D17*
X165500000Y-99437500D03*
D14*
G36*
X166008141Y-97025297D02*
G01*
X166034278Y-97029174D01*
X166059909Y-97035594D01*
X166084788Y-97044495D01*
X166108674Y-97055793D01*
X166131337Y-97069377D01*
X166152560Y-97085117D01*
X166172139Y-97102861D01*
X166189883Y-97122440D01*
X166205623Y-97143663D01*
X166219207Y-97166326D01*
X166230505Y-97190212D01*
X166239406Y-97215091D01*
X166245826Y-97240722D01*
X166249703Y-97266859D01*
X166251000Y-97293250D01*
X166251000Y-97831750D01*
X166249703Y-97858141D01*
X166245826Y-97884278D01*
X166239406Y-97909909D01*
X166230505Y-97934788D01*
X166219207Y-97958674D01*
X166205623Y-97981337D01*
X166189883Y-98002560D01*
X166172139Y-98022139D01*
X166152560Y-98039883D01*
X166131337Y-98055623D01*
X166108674Y-98069207D01*
X166084788Y-98080505D01*
X166059909Y-98089406D01*
X166034278Y-98095826D01*
X166008141Y-98099703D01*
X165981750Y-98101000D01*
X165018250Y-98101000D01*
X164991859Y-98099703D01*
X164965722Y-98095826D01*
X164940091Y-98089406D01*
X164915212Y-98080505D01*
X164891326Y-98069207D01*
X164868663Y-98055623D01*
X164847440Y-98039883D01*
X164827861Y-98022139D01*
X164810117Y-98002560D01*
X164794377Y-97981337D01*
X164780793Y-97958674D01*
X164769495Y-97934788D01*
X164760594Y-97909909D01*
X164754174Y-97884278D01*
X164750297Y-97858141D01*
X164749000Y-97831750D01*
X164749000Y-97293250D01*
X164750297Y-97266859D01*
X164754174Y-97240722D01*
X164760594Y-97215091D01*
X164769495Y-97190212D01*
X164780793Y-97166326D01*
X164794377Y-97143663D01*
X164810117Y-97122440D01*
X164827861Y-97102861D01*
X164847440Y-97085117D01*
X164868663Y-97069377D01*
X164891326Y-97055793D01*
X164915212Y-97044495D01*
X164940091Y-97035594D01*
X164965722Y-97029174D01*
X164991859Y-97025297D01*
X165018250Y-97024000D01*
X165981750Y-97024000D01*
X166008141Y-97025297D01*
X166008141Y-97025297D01*
G37*
D17*
X165500000Y-97562500D03*
D14*
G36*
X167805691Y-98800176D02*
G01*
X167829401Y-98803693D01*
X167852652Y-98809517D01*
X167875220Y-98817592D01*
X167896889Y-98827841D01*
X167917448Y-98840164D01*
X167936701Y-98854442D01*
X167954461Y-98870539D01*
X167970558Y-98888299D01*
X167984836Y-98907552D01*
X167997159Y-98928111D01*
X168007408Y-98949780D01*
X168015483Y-98972348D01*
X168021307Y-98995599D01*
X168024824Y-99019309D01*
X168026000Y-99043250D01*
X168026000Y-99531750D01*
X168024824Y-99555691D01*
X168021307Y-99579401D01*
X168015483Y-99602652D01*
X168007408Y-99625220D01*
X167997159Y-99646889D01*
X167984836Y-99667448D01*
X167970558Y-99686701D01*
X167954461Y-99704461D01*
X167936701Y-99720558D01*
X167917448Y-99734836D01*
X167896889Y-99747159D01*
X167875220Y-99757408D01*
X167852652Y-99765483D01*
X167829401Y-99771307D01*
X167805691Y-99774824D01*
X167781750Y-99776000D01*
X167218250Y-99776000D01*
X167194309Y-99774824D01*
X167170599Y-99771307D01*
X167147348Y-99765483D01*
X167124780Y-99757408D01*
X167103111Y-99747159D01*
X167082552Y-99734836D01*
X167063299Y-99720558D01*
X167045539Y-99704461D01*
X167029442Y-99686701D01*
X167015164Y-99667448D01*
X167002841Y-99646889D01*
X166992592Y-99625220D01*
X166984517Y-99602652D01*
X166978693Y-99579401D01*
X166975176Y-99555691D01*
X166974000Y-99531750D01*
X166974000Y-99043250D01*
X166975176Y-99019309D01*
X166978693Y-98995599D01*
X166984517Y-98972348D01*
X166992592Y-98949780D01*
X167002841Y-98928111D01*
X167015164Y-98907552D01*
X167029442Y-98888299D01*
X167045539Y-98870539D01*
X167063299Y-98854442D01*
X167082552Y-98840164D01*
X167103111Y-98827841D01*
X167124780Y-98817592D01*
X167147348Y-98809517D01*
X167170599Y-98803693D01*
X167194309Y-98800176D01*
X167218250Y-98799000D01*
X167781750Y-98799000D01*
X167805691Y-98800176D01*
X167805691Y-98800176D01*
G37*
D15*
X167500000Y-99287500D03*
D14*
G36*
X167805691Y-97225176D02*
G01*
X167829401Y-97228693D01*
X167852652Y-97234517D01*
X167875220Y-97242592D01*
X167896889Y-97252841D01*
X167917448Y-97265164D01*
X167936701Y-97279442D01*
X167954461Y-97295539D01*
X167970558Y-97313299D01*
X167984836Y-97332552D01*
X167997159Y-97353111D01*
X168007408Y-97374780D01*
X168015483Y-97397348D01*
X168021307Y-97420599D01*
X168024824Y-97444309D01*
X168026000Y-97468250D01*
X168026000Y-97956750D01*
X168024824Y-97980691D01*
X168021307Y-98004401D01*
X168015483Y-98027652D01*
X168007408Y-98050220D01*
X167997159Y-98071889D01*
X167984836Y-98092448D01*
X167970558Y-98111701D01*
X167954461Y-98129461D01*
X167936701Y-98145558D01*
X167917448Y-98159836D01*
X167896889Y-98172159D01*
X167875220Y-98182408D01*
X167852652Y-98190483D01*
X167829401Y-98196307D01*
X167805691Y-98199824D01*
X167781750Y-98201000D01*
X167218250Y-98201000D01*
X167194309Y-98199824D01*
X167170599Y-98196307D01*
X167147348Y-98190483D01*
X167124780Y-98182408D01*
X167103111Y-98172159D01*
X167082552Y-98159836D01*
X167063299Y-98145558D01*
X167045539Y-98129461D01*
X167029442Y-98111701D01*
X167015164Y-98092448D01*
X167002841Y-98071889D01*
X166992592Y-98050220D01*
X166984517Y-98027652D01*
X166978693Y-98004401D01*
X166975176Y-97980691D01*
X166974000Y-97956750D01*
X166974000Y-97468250D01*
X166975176Y-97444309D01*
X166978693Y-97420599D01*
X166984517Y-97397348D01*
X166992592Y-97374780D01*
X167002841Y-97353111D01*
X167015164Y-97332552D01*
X167029442Y-97313299D01*
X167045539Y-97295539D01*
X167063299Y-97279442D01*
X167082552Y-97265164D01*
X167103111Y-97252841D01*
X167124780Y-97242592D01*
X167147348Y-97234517D01*
X167170599Y-97228693D01*
X167194309Y-97225176D01*
X167218250Y-97224000D01*
X167781750Y-97224000D01*
X167805691Y-97225176D01*
X167805691Y-97225176D01*
G37*
D15*
X167500000Y-97712500D03*
D14*
G36*
X163805691Y-98800176D02*
G01*
X163829401Y-98803693D01*
X163852652Y-98809517D01*
X163875220Y-98817592D01*
X163896889Y-98827841D01*
X163917448Y-98840164D01*
X163936701Y-98854442D01*
X163954461Y-98870539D01*
X163970558Y-98888299D01*
X163984836Y-98907552D01*
X163997159Y-98928111D01*
X164007408Y-98949780D01*
X164015483Y-98972348D01*
X164021307Y-98995599D01*
X164024824Y-99019309D01*
X164026000Y-99043250D01*
X164026000Y-99531750D01*
X164024824Y-99555691D01*
X164021307Y-99579401D01*
X164015483Y-99602652D01*
X164007408Y-99625220D01*
X163997159Y-99646889D01*
X163984836Y-99667448D01*
X163970558Y-99686701D01*
X163954461Y-99704461D01*
X163936701Y-99720558D01*
X163917448Y-99734836D01*
X163896889Y-99747159D01*
X163875220Y-99757408D01*
X163852652Y-99765483D01*
X163829401Y-99771307D01*
X163805691Y-99774824D01*
X163781750Y-99776000D01*
X163218250Y-99776000D01*
X163194309Y-99774824D01*
X163170599Y-99771307D01*
X163147348Y-99765483D01*
X163124780Y-99757408D01*
X163103111Y-99747159D01*
X163082552Y-99734836D01*
X163063299Y-99720558D01*
X163045539Y-99704461D01*
X163029442Y-99686701D01*
X163015164Y-99667448D01*
X163002841Y-99646889D01*
X162992592Y-99625220D01*
X162984517Y-99602652D01*
X162978693Y-99579401D01*
X162975176Y-99555691D01*
X162974000Y-99531750D01*
X162974000Y-99043250D01*
X162975176Y-99019309D01*
X162978693Y-98995599D01*
X162984517Y-98972348D01*
X162992592Y-98949780D01*
X163002841Y-98928111D01*
X163015164Y-98907552D01*
X163029442Y-98888299D01*
X163045539Y-98870539D01*
X163063299Y-98854442D01*
X163082552Y-98840164D01*
X163103111Y-98827841D01*
X163124780Y-98817592D01*
X163147348Y-98809517D01*
X163170599Y-98803693D01*
X163194309Y-98800176D01*
X163218250Y-98799000D01*
X163781750Y-98799000D01*
X163805691Y-98800176D01*
X163805691Y-98800176D01*
G37*
D15*
X163500000Y-99287500D03*
D14*
G36*
X163805691Y-97225176D02*
G01*
X163829401Y-97228693D01*
X163852652Y-97234517D01*
X163875220Y-97242592D01*
X163896889Y-97252841D01*
X163917448Y-97265164D01*
X163936701Y-97279442D01*
X163954461Y-97295539D01*
X163970558Y-97313299D01*
X163984836Y-97332552D01*
X163997159Y-97353111D01*
X164007408Y-97374780D01*
X164015483Y-97397348D01*
X164021307Y-97420599D01*
X164024824Y-97444309D01*
X164026000Y-97468250D01*
X164026000Y-97956750D01*
X164024824Y-97980691D01*
X164021307Y-98004401D01*
X164015483Y-98027652D01*
X164007408Y-98050220D01*
X163997159Y-98071889D01*
X163984836Y-98092448D01*
X163970558Y-98111701D01*
X163954461Y-98129461D01*
X163936701Y-98145558D01*
X163917448Y-98159836D01*
X163896889Y-98172159D01*
X163875220Y-98182408D01*
X163852652Y-98190483D01*
X163829401Y-98196307D01*
X163805691Y-98199824D01*
X163781750Y-98201000D01*
X163218250Y-98201000D01*
X163194309Y-98199824D01*
X163170599Y-98196307D01*
X163147348Y-98190483D01*
X163124780Y-98182408D01*
X163103111Y-98172159D01*
X163082552Y-98159836D01*
X163063299Y-98145558D01*
X163045539Y-98129461D01*
X163029442Y-98111701D01*
X163015164Y-98092448D01*
X163002841Y-98071889D01*
X162992592Y-98050220D01*
X162984517Y-98027652D01*
X162978693Y-98004401D01*
X162975176Y-97980691D01*
X162974000Y-97956750D01*
X162974000Y-97468250D01*
X162975176Y-97444309D01*
X162978693Y-97420599D01*
X162984517Y-97397348D01*
X162992592Y-97374780D01*
X163002841Y-97353111D01*
X163015164Y-97332552D01*
X163029442Y-97313299D01*
X163045539Y-97295539D01*
X163063299Y-97279442D01*
X163082552Y-97265164D01*
X163103111Y-97252841D01*
X163124780Y-97242592D01*
X163147348Y-97234517D01*
X163170599Y-97228693D01*
X163194309Y-97225176D01*
X163218250Y-97224000D01*
X163781750Y-97224000D01*
X163805691Y-97225176D01*
X163805691Y-97225176D01*
G37*
D15*
X163500000Y-97712500D03*
D14*
G36*
X170008141Y-98900297D02*
G01*
X170034278Y-98904174D01*
X170059909Y-98910594D01*
X170084788Y-98919495D01*
X170108674Y-98930793D01*
X170131337Y-98944377D01*
X170152560Y-98960117D01*
X170172139Y-98977861D01*
X170189883Y-98997440D01*
X170205623Y-99018663D01*
X170219207Y-99041326D01*
X170230505Y-99065212D01*
X170239406Y-99090091D01*
X170245826Y-99115722D01*
X170249703Y-99141859D01*
X170251000Y-99168250D01*
X170251000Y-99706750D01*
X170249703Y-99733141D01*
X170245826Y-99759278D01*
X170239406Y-99784909D01*
X170230505Y-99809788D01*
X170219207Y-99833674D01*
X170205623Y-99856337D01*
X170189883Y-99877560D01*
X170172139Y-99897139D01*
X170152560Y-99914883D01*
X170131337Y-99930623D01*
X170108674Y-99944207D01*
X170084788Y-99955505D01*
X170059909Y-99964406D01*
X170034278Y-99970826D01*
X170008141Y-99974703D01*
X169981750Y-99976000D01*
X169018250Y-99976000D01*
X168991859Y-99974703D01*
X168965722Y-99970826D01*
X168940091Y-99964406D01*
X168915212Y-99955505D01*
X168891326Y-99944207D01*
X168868663Y-99930623D01*
X168847440Y-99914883D01*
X168827861Y-99897139D01*
X168810117Y-99877560D01*
X168794377Y-99856337D01*
X168780793Y-99833674D01*
X168769495Y-99809788D01*
X168760594Y-99784909D01*
X168754174Y-99759278D01*
X168750297Y-99733141D01*
X168749000Y-99706750D01*
X168749000Y-99168250D01*
X168750297Y-99141859D01*
X168754174Y-99115722D01*
X168760594Y-99090091D01*
X168769495Y-99065212D01*
X168780793Y-99041326D01*
X168794377Y-99018663D01*
X168810117Y-98997440D01*
X168827861Y-98977861D01*
X168847440Y-98960117D01*
X168868663Y-98944377D01*
X168891326Y-98930793D01*
X168915212Y-98919495D01*
X168940091Y-98910594D01*
X168965722Y-98904174D01*
X168991859Y-98900297D01*
X169018250Y-98899000D01*
X169981750Y-98899000D01*
X170008141Y-98900297D01*
X170008141Y-98900297D01*
G37*
D17*
X169500000Y-99437500D03*
D14*
G36*
X170008141Y-97025297D02*
G01*
X170034278Y-97029174D01*
X170059909Y-97035594D01*
X170084788Y-97044495D01*
X170108674Y-97055793D01*
X170131337Y-97069377D01*
X170152560Y-97085117D01*
X170172139Y-97102861D01*
X170189883Y-97122440D01*
X170205623Y-97143663D01*
X170219207Y-97166326D01*
X170230505Y-97190212D01*
X170239406Y-97215091D01*
X170245826Y-97240722D01*
X170249703Y-97266859D01*
X170251000Y-97293250D01*
X170251000Y-97831750D01*
X170249703Y-97858141D01*
X170245826Y-97884278D01*
X170239406Y-97909909D01*
X170230505Y-97934788D01*
X170219207Y-97958674D01*
X170205623Y-97981337D01*
X170189883Y-98002560D01*
X170172139Y-98022139D01*
X170152560Y-98039883D01*
X170131337Y-98055623D01*
X170108674Y-98069207D01*
X170084788Y-98080505D01*
X170059909Y-98089406D01*
X170034278Y-98095826D01*
X170008141Y-98099703D01*
X169981750Y-98101000D01*
X169018250Y-98101000D01*
X168991859Y-98099703D01*
X168965722Y-98095826D01*
X168940091Y-98089406D01*
X168915212Y-98080505D01*
X168891326Y-98069207D01*
X168868663Y-98055623D01*
X168847440Y-98039883D01*
X168827861Y-98022139D01*
X168810117Y-98002560D01*
X168794377Y-97981337D01*
X168780793Y-97958674D01*
X168769495Y-97934788D01*
X168760594Y-97909909D01*
X168754174Y-97884278D01*
X168750297Y-97858141D01*
X168749000Y-97831750D01*
X168749000Y-97293250D01*
X168750297Y-97266859D01*
X168754174Y-97240722D01*
X168760594Y-97215091D01*
X168769495Y-97190212D01*
X168780793Y-97166326D01*
X168794377Y-97143663D01*
X168810117Y-97122440D01*
X168827861Y-97102861D01*
X168847440Y-97085117D01*
X168868663Y-97069377D01*
X168891326Y-97055793D01*
X168915212Y-97044495D01*
X168940091Y-97035594D01*
X168965722Y-97029174D01*
X168991859Y-97025297D01*
X169018250Y-97024000D01*
X169981750Y-97024000D01*
X170008141Y-97025297D01*
X170008141Y-97025297D01*
G37*
D17*
X169500000Y-97562500D03*
D14*
G36*
X162008141Y-98900297D02*
G01*
X162034278Y-98904174D01*
X162059909Y-98910594D01*
X162084788Y-98919495D01*
X162108674Y-98930793D01*
X162131337Y-98944377D01*
X162152560Y-98960117D01*
X162172139Y-98977861D01*
X162189883Y-98997440D01*
X162205623Y-99018663D01*
X162219207Y-99041326D01*
X162230505Y-99065212D01*
X162239406Y-99090091D01*
X162245826Y-99115722D01*
X162249703Y-99141859D01*
X162251000Y-99168250D01*
X162251000Y-99706750D01*
X162249703Y-99733141D01*
X162245826Y-99759278D01*
X162239406Y-99784909D01*
X162230505Y-99809788D01*
X162219207Y-99833674D01*
X162205623Y-99856337D01*
X162189883Y-99877560D01*
X162172139Y-99897139D01*
X162152560Y-99914883D01*
X162131337Y-99930623D01*
X162108674Y-99944207D01*
X162084788Y-99955505D01*
X162059909Y-99964406D01*
X162034278Y-99970826D01*
X162008141Y-99974703D01*
X161981750Y-99976000D01*
X161018250Y-99976000D01*
X160991859Y-99974703D01*
X160965722Y-99970826D01*
X160940091Y-99964406D01*
X160915212Y-99955505D01*
X160891326Y-99944207D01*
X160868663Y-99930623D01*
X160847440Y-99914883D01*
X160827861Y-99897139D01*
X160810117Y-99877560D01*
X160794377Y-99856337D01*
X160780793Y-99833674D01*
X160769495Y-99809788D01*
X160760594Y-99784909D01*
X160754174Y-99759278D01*
X160750297Y-99733141D01*
X160749000Y-99706750D01*
X160749000Y-99168250D01*
X160750297Y-99141859D01*
X160754174Y-99115722D01*
X160760594Y-99090091D01*
X160769495Y-99065212D01*
X160780793Y-99041326D01*
X160794377Y-99018663D01*
X160810117Y-98997440D01*
X160827861Y-98977861D01*
X160847440Y-98960117D01*
X160868663Y-98944377D01*
X160891326Y-98930793D01*
X160915212Y-98919495D01*
X160940091Y-98910594D01*
X160965722Y-98904174D01*
X160991859Y-98900297D01*
X161018250Y-98899000D01*
X161981750Y-98899000D01*
X162008141Y-98900297D01*
X162008141Y-98900297D01*
G37*
D17*
X161500000Y-99437500D03*
D14*
G36*
X162008141Y-97025297D02*
G01*
X162034278Y-97029174D01*
X162059909Y-97035594D01*
X162084788Y-97044495D01*
X162108674Y-97055793D01*
X162131337Y-97069377D01*
X162152560Y-97085117D01*
X162172139Y-97102861D01*
X162189883Y-97122440D01*
X162205623Y-97143663D01*
X162219207Y-97166326D01*
X162230505Y-97190212D01*
X162239406Y-97215091D01*
X162245826Y-97240722D01*
X162249703Y-97266859D01*
X162251000Y-97293250D01*
X162251000Y-97831750D01*
X162249703Y-97858141D01*
X162245826Y-97884278D01*
X162239406Y-97909909D01*
X162230505Y-97934788D01*
X162219207Y-97958674D01*
X162205623Y-97981337D01*
X162189883Y-98002560D01*
X162172139Y-98022139D01*
X162152560Y-98039883D01*
X162131337Y-98055623D01*
X162108674Y-98069207D01*
X162084788Y-98080505D01*
X162059909Y-98089406D01*
X162034278Y-98095826D01*
X162008141Y-98099703D01*
X161981750Y-98101000D01*
X161018250Y-98101000D01*
X160991859Y-98099703D01*
X160965722Y-98095826D01*
X160940091Y-98089406D01*
X160915212Y-98080505D01*
X160891326Y-98069207D01*
X160868663Y-98055623D01*
X160847440Y-98039883D01*
X160827861Y-98022139D01*
X160810117Y-98002560D01*
X160794377Y-97981337D01*
X160780793Y-97958674D01*
X160769495Y-97934788D01*
X160760594Y-97909909D01*
X160754174Y-97884278D01*
X160750297Y-97858141D01*
X160749000Y-97831750D01*
X160749000Y-97293250D01*
X160750297Y-97266859D01*
X160754174Y-97240722D01*
X160760594Y-97215091D01*
X160769495Y-97190212D01*
X160780793Y-97166326D01*
X160794377Y-97143663D01*
X160810117Y-97122440D01*
X160827861Y-97102861D01*
X160847440Y-97085117D01*
X160868663Y-97069377D01*
X160891326Y-97055793D01*
X160915212Y-97044495D01*
X160940091Y-97035594D01*
X160965722Y-97029174D01*
X160991859Y-97025297D01*
X161018250Y-97024000D01*
X161981750Y-97024000D01*
X162008141Y-97025297D01*
X162008141Y-97025297D01*
G37*
D17*
X161500000Y-97562500D03*
M02*
