M48
; DRILL file {KiCad (5.1.2)-1} date 2025/09/14 13:11:53
; FORMAT={-:-/ absolute / metric / decimal}
; #@! TF.CreationDate,2025-09-14T13:11:53+09:00
; #@! TF.GenerationSoftware,Kicad,Pcbnew,(5.1.2)-1
FMAT,2
METRIC
T1C0.400
T2C0.500
T3C0.762
T4C3.200
%
G90
G05
T1
X149.5Y-93.9
X149.6Y-87.0
X155.7Y-84.4
X155.9Y-101.0
X156.8Y-93.1
X158.4Y-86.8
X160.7Y-91.1
X161.5Y-101.1
X161.975Y-95.175
X162.0Y-84.8
X163.6Y-87.9
X166.0Y-94.3
X166.395Y-88.434
X169.8Y-101.5
X170.2Y-90.0
T2
X154.0Y-85.5
T3
X154.0Y-88.5
X154.0Y-90.5
X154.0Y-92.5
X154.0Y-94.5
T4
X150.0Y-82.0
X150.0Y-101.0
T0
M30
